<svg width="204" height="95" viewBox="0 0 204 95" fill="none" xmlns="http://www.w3.org/2000/svg">
<path d="M185.112 3.13873H185.612V3.10509C194.805 3.33099 202.521 10.808 203.002 20.0257C203.529 30.3573 195.318 38.9144 185.112 38.9144C180.176 38.9144 175.734 36.9544 172.496 33.7133L171.699 34.2968C175.808 42.2215 173.695 52.2207 166.271 57.6904L166.27 57.6913C158.997 63.0849 149.083 62.2955 142.673 56.3318L141.889 56.9288C146.036 64.8917 143.924 74.891 136.499 80.3996C128.281 86.4745 116.671 84.7387 110.602 76.5142C110.185 75.9448 109.81 75.3808 109.474 74.7826L108.543 75.1035C108.614 75.5639 108.615 75.9918 108.615 76.5002C108.615 86.3782 100.63 94.4074 90.7256 94.4074C82.1038 94.4074 74.908 88.2639 73.2127 80.1185L72.2331 80.1211C70.5748 88.3075 63.7641 94.4074 54.7208 94.4074C45.6834 94.4074 38.2631 87.7365 37.0199 79.0259L36.0399 78.9748C34.0805 86.7826 27.0729 92.586 18.6774 92.586C8.47156 92.586 0.259975 84.0288 0.787246 73.697C1.27686 64.2746 9.22635 56.7328 18.6387 56.7328C23.4581 56.7328 27.8273 58.6543 31.0694 61.7486L31.8737 61.189C28.5563 53.4912 30.8195 44.2089 37.8673 39.0028L37.868 39.0022C45.1405 33.6086 55.0546 34.3981 61.4651 40.3618L62.2491 39.7647C58.1017 31.8017 60.2143 21.8021 67.6395 16.2937C75.8569 10.2194 87.4663 11.9549 93.5353 20.1786C93.7474 20.4706 93.936 20.7748 94.1302 21.0879C94.2082 21.2136 94.287 21.3408 94.3687 21.4692L95.2872 21.1426C95.212 20.503 95.1744 19.8637 95.1744 19.2246C95.1744 9.34657 103.159 1.31738 113.064 1.31738C121.686 1.31738 128.881 7.46082 130.577 15.6063L131.556 15.6037C133.215 7.41727 140.025 1.31738 149.069 1.31738C158.106 1.31738 165.526 7.98827 166.77 16.6989L167.75 16.7499C169.709 8.94212 176.717 3.13873 185.112 3.13873Z" fill="#007578" stroke="#007578"/>
</svg>
