<svg width="1726" height="802" viewBox="0 0 1726 802" fill="none" xmlns="http://www.w3.org/2000/svg">
<path d="M1569.27 15.5247C1495.79 15.5247 1434.51 66.3929 1417.37 134.768C1406.5 58.4654 1341.59 0 1262.5 0C1183.42 0 1123.78 53.5107 1109.28 125.189C1094.46 53.841 1031.52 0 956.063 0C869.402 0 799.547 70.3567 799.547 156.899C799.547 162.514 799.877 168.129 800.536 173.745C798.229 170.111 795.923 166.147 793.287 162.514C740.236 90.5057 638.748 75.3114 566.916 128.492C502.003 176.717 483.55 264.25 519.796 333.946C463.78 281.757 377.12 274.82 313.525 322.055C251.907 367.638 232.137 448.895 261.134 516.279C232.796 489.194 194.573 472.348 152.396 472.348C70.0198 472.348 0.494014 538.41 -3.78957 620.988C-8.40266 711.494 63.4297 786.475 152.726 786.475C226.206 786.475 287.494 735.607 304.628 667.232C315.502 743.535 380.415 802 459.496 802C538.578 802 598.219 748.489 612.717 676.811C627.545 748.159 690.48 802 765.937 802C852.598 802 922.453 731.643 922.453 645.101C922.453 640.807 922.453 636.843 921.794 632.549C924.76 637.834 928.055 642.789 931.679 647.744C984.73 719.752 1086.22 734.946 1158.05 681.766C1222.96 633.54 1241.42 546.007 1205.17 476.311C1261.19 528.501 1347.85 535.437 1411.44 488.203C1476.35 440.307 1494.81 352.774 1458.89 283.409C1487.23 311.815 1526.11 328.992 1569.27 328.992C1658.57 328.992 1730.4 254.011 1725.79 163.505C1721.51 81.257 1651.65 14.8641 1569.27 15.1944V15.5247Z" fill="url(#paint0_linear_111_106)"/>
<defs>
<linearGradient id="paint0_linear_111_106" x1="678.5" y1="116.5" x2="783.5" y2="457.5" gradientUnits="userSpaceOnUse">
<stop stop-color="#E2C0FF"/>
<stop offset="1" stop-color="#E2C0FF" stop-opacity="0"/>
</linearGradient>
</defs>
</svg>
