<svg width="1638" height="759" viewBox="0 0 1638 759" fill="none" xmlns="http://www.w3.org/2000/svg">
<path d="M1489.61 15.1923H1490.11V14.8786C1567.62 14.8359 1633.27 77.3573 1637.3 154.764C1641.65 240.132 1573.87 310.853 1489.61 310.853C1448.87 310.853 1412.19 294.652 1385.45 267.86L1384.65 268.443C1418.55 333.877 1401.13 416.447 1339.87 461.625L1339.87 461.626C1279.86 506.18 1198.07 499.64 1145.21 450.408L1144.42 451.004C1178.63 516.75 1161.21 599.32 1099.96 644.811C1032.17 694.975 936.388 680.642 886.323 612.718C882.9 608.041 879.793 603.369 876.997 598.39L876.067 598.711C876.684 602.731 876.685 606.445 876.685 610.514C876.685 692.141 810.767 758.5 728.993 758.5C657.793 758.5 598.402 707.719 584.41 640.422L583.43 640.424C569.748 708.037 513.475 758.5 438.848 758.5C364.226 758.5 302.972 703.358 292.711 631.387L291.731 631.336C275.561 695.832 217.725 743.808 148.391 743.808C64.1303 743.808 -3.65435 673.087 0.698569 587.719C4.7406 509.834 70.3502 447.522 148.079 447.522C187.877 447.522 223.945 463.41 250.689 488.96L251.493 488.401C224.128 424.837 242.787 348.187 300.937 305.19L300.937 305.189C360.951 260.635 442.734 267.176 495.6 316.408L496.385 315.811C462.178 250.065 479.593 167.495 540.852 122.004C608.642 71.8404 704.417 86.1723 754.483 154.094C756.276 156.565 757.903 159.191 759.496 161.763C760.11 162.753 760.718 163.735 761.329 164.697L762.248 164.371C761.626 159.076 761.315 153.781 761.315 148.486C761.315 66.859 827.233 0.5 909.007 0.5C980.207 0.5 1039.6 51.2807 1053.59 118.578L1054.57 118.576C1068.25 50.9633 1124.52 0.5 1199.15 0.5C1273.77 0.5 1335.03 55.6421 1345.29 127.613L1346.27 127.664C1362.44 63.1684 1420.27 15.1923 1489.61 15.1923Z" fill="#007578" stroke="#007578"/>
</svg>
