<?xml version="1.0" encoding="UTF-8"?><svg id="_이어_2" xmlns="http://www.w3.org/2000/svg" viewBox="0 0 139.57 139.57"><defs><style>.cls-1{fill:#007578;}</style></defs><g id="_이어_1-2"><path class="cls-1" d="M139.57,70.95c0-11.04-8.95-19.98-19.98-19.98-.83,0-1.64,.07-2.44,.16,4.75-3.65,7.82-9.38,7.82-15.83,0-11.04-8.95-19.98-19.98-19.98-6.13,0-11.61,2.77-15.27,7.11,.1-.8,.16-1.61,.16-2.44,0-11.04-8.95-19.98-19.98-19.98s-19.98,8.95-19.98,19.98c0,.83,.07,1.65,.17,2.46-3.67-4.35-9.15-7.13-15.29-7.13-11.04,0-19.98,8.95-19.98,19.98,0,6.47,3.09,12.21,7.87,15.86-.88-.12-1.77-.2-2.68-.2C8.95,50.97,0,59.91,0,70.95s8.95,19.98,19.98,19.98c.35,0,.69-.03,1.03-.05-3.83,3.64-6.22,8.77-6.22,14.47,0,11.04,8.95,19.98,19.98,19.98,6.08,0,11.52-2.73,15.19-7.01-.03,.42-.06,.84-.06,1.26,0,11.04,8.95,19.98,19.98,19.98s19.98-8.95,19.98-19.98c0-.42-.04-.83-.06-1.25,3.67,4.28,9.1,7,15.17,7,11.04,0,19.98-8.95,19.98-19.98,0-5.69-2.39-10.82-6.21-14.46,.28,.01,.55,.04,.83,.04,11.04,0,19.98-8.95,19.98-19.98Z"/></g></svg>