<svg width="1132" height="912" viewBox="0 0 1132 912" fill="none" xmlns="http://www.w3.org/2000/svg">
<path d="M524 907.5L1.5 387L1129 32L594.5 884.5L524 907.5Z" fill="url(#paint0_linear_100_35)" fill-opacity="0.3"/>
<path d="M598.558 4.32135H599.058V4.28771C608.251 4.51361 615.967 11.9907 616.448 21.2083C616.975 31.54 608.764 40.0971 598.558 40.0971C593.622 40.0971 589.18 38.137 585.942 34.8959L585.145 35.4794C589.254 43.4042 587.141 53.4033 579.717 58.873L579.716 58.8739C572.443 64.2676 562.529 63.4781 556.119 57.5144L555.335 58.1114C559.482 66.0743 557.37 76.0737 549.945 81.5822C541.727 87.6569 530.117 85.9214 524.048 77.6973C523.631 77.1277 523.256 76.5635 522.919 75.9652L521.989 76.2861C522.06 76.7465 522.061 77.1744 522.061 77.6828C522.061 87.5608 514.076 95.59 504.171 95.59C495.55 95.59 488.354 89.4466 486.659 81.3011L485.679 81.3037C484.021 89.4901 477.21 95.59 468.167 95.59C459.129 95.59 451.709 88.9191 450.466 80.2085L449.486 80.1574C447.526 87.9653 440.519 93.7687 432.123 93.7687C421.917 93.7687 413.706 85.2114 414.233 74.8796C414.723 65.4572 422.672 57.9154 432.084 57.9154C436.904 57.9154 441.273 59.837 444.515 62.9312L445.32 62.3716C442.002 54.6738 444.265 45.3915 451.313 40.1854L451.314 40.1849C458.586 34.7912 468.5 35.5807 474.911 41.5444L475.695 40.9474C471.548 32.9843 473.66 22.9847 481.085 17.4763C489.303 11.4021 500.912 13.1375 506.981 21.3608C507.193 21.653 507.382 21.9573 507.576 22.2706C507.654 22.3963 507.733 22.5235 507.814 22.6518L508.733 22.3252C508.658 21.6857 508.62 21.0464 508.62 20.4072C508.62 10.5292 516.605 2.5 526.51 2.5C535.132 2.5 542.327 8.64344 544.023 16.7889L545.002 16.7863C546.66 8.59989 553.471 2.5 562.514 2.5C571.552 2.5 578.972 9.17089 580.215 17.8815L581.195 17.9325C583.155 10.1247 590.162 4.32135 598.558 4.32135Z" fill="#007578" stroke="#007578"/>
<path d="M769.5 4.32135H770V4.28771C779.193 4.51361 786.909 11.9907 787.39 21.2083C787.917 31.54 779.706 40.0971 769.5 40.0971C764.564 40.0971 760.122 38.137 756.884 34.8959L756.086 35.4794C760.196 43.4042 758.083 53.4033 750.659 58.873L750.658 58.8739C743.385 64.2676 733.471 63.4781 727.061 57.5144L726.277 58.1114C730.424 66.0743 728.311 76.0737 720.887 81.5822C712.669 87.6569 701.059 85.9214 694.99 77.6973C694.573 77.1277 694.197 76.5635 693.861 75.9652L692.931 76.2861C693.002 76.7465 693.003 77.1744 693.003 77.6828C693.003 87.5608 685.018 95.59 675.113 95.59C666.491 95.59 659.296 89.4466 657.6 81.3011L656.621 81.3037C654.963 89.4901 648.152 95.59 639.109 95.59C630.071 95.59 622.651 88.9191 621.408 80.2085L620.428 80.1574C618.468 87.9653 611.461 93.7687 603.065 93.7687C592.859 93.7687 584.648 85.2114 585.175 74.8796C585.665 65.4572 593.614 57.9154 603.026 57.9154C607.846 57.9154 612.215 59.837 615.457 62.9312L616.261 62.3716C612.944 54.6738 615.207 45.3915 622.255 40.1854L622.256 40.1849C629.528 34.7912 639.442 35.5807 645.853 41.5444L646.637 40.9474C642.489 32.9843 644.602 22.9847 652.027 17.4763C660.245 11.4021 671.854 13.1375 677.923 21.3608C678.135 21.653 678.324 21.9573 678.518 22.2706C678.596 22.3963 678.675 22.5235 678.756 22.6518L679.675 22.3252C679.6 21.6857 679.562 21.0464 679.562 20.4072C679.562 10.5292 687.547 2.5 697.452 2.5C706.073 2.5 713.269 8.64344 714.964 16.7889L715.944 16.7863C717.602 8.59989 724.413 2.5 733.456 2.5C742.494 2.5 749.914 9.17089 751.157 17.8815L752.137 17.9325C754.097 10.1247 761.104 4.32135 769.5 4.32135Z" fill="#007578" stroke="#007578"/>
<path d="M941.878 4.32135H942.378V4.28771C951.572 4.51361 959.288 11.9907 959.769 21.2083C960.296 31.54 952.084 40.0971 941.878 40.0971C936.943 40.0971 932.501 38.137 929.263 34.8959L928.465 35.4794C932.574 43.4042 930.462 53.4033 923.038 58.873L923.036 58.8739C915.764 64.2676 905.85 63.4781 899.439 57.5144L898.655 58.1114C902.802 66.0743 900.69 76.0737 893.265 81.5822C885.048 87.6569 873.438 85.9214 867.369 77.6973C866.951 77.1277 866.576 76.5635 866.24 75.9652L865.31 76.2861C865.381 76.7465 865.381 77.1744 865.381 77.6828C865.381 87.5608 857.397 95.59 847.492 95.59C838.87 95.59 831.674 89.4466 829.979 81.3011L828.999 81.3037C827.341 89.4901 820.53 95.59 811.487 95.59C802.45 95.59 795.029 88.9191 793.786 80.2085L792.806 80.1574C790.847 87.9653 783.839 93.7687 775.444 93.7687C765.238 93.7687 757.026 85.2114 757.554 74.8796C758.043 65.4572 765.993 57.9154 775.405 57.9154C780.224 57.9154 784.594 59.837 787.836 62.9312L788.64 62.3716C785.323 54.6738 787.586 45.3915 794.634 40.1854L794.634 40.1849C801.907 34.7912 811.821 35.5807 818.231 41.5444L819.015 40.9474C814.868 32.9843 816.981 22.9847 824.406 17.4763C832.623 11.402 844.233 13.1376 850.302 21.3612C850.514 21.6532 850.702 21.9574 850.897 22.2705C850.975 22.3962 851.053 22.5234 851.135 22.6518L852.054 22.3252C851.978 21.6857 851.941 21.0464 851.941 20.4072C851.941 10.5292 859.926 2.5 869.83 2.5C878.452 2.5 885.648 8.64344 887.343 16.7889L888.323 16.7863C889.981 8.59989 896.792 2.5 905.835 2.5C914.872 2.5 922.293 9.17089 923.536 17.8815L924.516 17.9325C926.475 10.1247 933.483 4.32135 941.878 4.32135Z" fill="#007578" stroke="#007578"/>
<path d="M1113.54 4.32135H1114.04V4.28771C1123.23 4.51361 1130.95 11.9907 1131.43 21.2083C1131.96 31.54 1123.74 40.0971 1113.54 40.0971C1108.6 40.0971 1104.16 38.137 1100.92 34.8959L1100.13 35.4794C1104.23 43.4042 1102.12 53.4033 1094.7 58.873L1094.7 58.8739C1087.42 64.2676 1077.51 63.4781 1071.1 57.5144L1070.32 58.1114C1074.46 66.0743 1072.35 76.0737 1064.93 81.5822C1056.71 87.6569 1045.1 85.9214 1039.03 77.6973C1038.61 77.1277 1038.24 76.5635 1037.9 75.9652L1036.97 76.2861C1037.04 76.7465 1037.04 77.1744 1037.04 77.6828C1037.04 87.5608 1029.06 95.59 1019.15 95.59C1010.53 95.59 1003.33 89.4466 1001.64 81.3011L1000.66 81.3037C999.002 89.4901 992.191 95.59 983.148 95.59C974.11 95.59 966.69 88.9191 965.447 80.2085L964.467 80.1574C962.507 87.9653 955.5 93.7687 947.104 93.7687C936.898 93.7687 928.687 85.2114 929.214 74.8796C929.704 65.4572 937.653 57.9154 947.065 57.9154C951.885 57.9154 956.254 59.837 959.496 62.9312L960.3 62.3716C956.983 54.6738 959.246 45.3915 966.294 40.1854L966.295 40.1849C973.567 34.7912 983.481 35.5807 989.892 41.5444L990.676 40.9474C986.528 32.9843 988.641 22.9847 996.066 17.4763C1004.28 11.4021 1015.89 13.1375 1021.96 21.3608C1022.17 21.653 1022.36 21.9573 1022.56 22.2706C1022.63 22.3963 1022.71 22.5235 1022.8 22.6518L1023.71 22.3252C1023.64 21.6857 1023.6 21.0464 1023.6 20.4072C1023.6 10.5292 1031.59 2.5 1041.49 2.5C1050.11 2.5 1057.31 8.64344 1059 16.7889L1059.98 16.7863C1061.64 8.59989 1068.45 2.5 1077.5 2.5C1086.53 2.5 1093.95 9.17089 1095.2 17.8815L1096.18 17.9325C1098.14 10.1247 1105.14 4.32135 1113.54 4.32135Z" fill="#007578" stroke="#007578"/>
<path d="M635.188 102.735H635.688V102.701C644.878 102.928 652.597 110.461 653.078 119.753C653.606 130.17 645.39 138.791 635.188 138.791C630.254 138.791 625.812 136.817 622.574 133.55L621.774 134.131C625.885 142.12 623.77 152.199 616.346 157.711L616.344 157.712C609.073 163.146 599.161 162.351 592.75 156.342L591.964 156.936C596.113 164.963 593.999 175.042 586.573 180.593C578.357 186.713 566.749 184.966 560.679 176.678C560.262 176.104 559.886 175.535 559.55 174.933L558.619 175.251C558.69 175.716 558.691 176.148 558.691 176.66C558.691 186.619 550.703 194.708 540.801 194.708C532.183 194.708 524.985 188.519 523.289 180.307L522.309 180.31C520.65 188.563 513.837 194.708 504.797 194.708C495.762 194.708 488.34 187.988 487.096 179.206L486.116 179.155C484.155 187.026 477.146 192.872 468.753 192.872C458.551 192.872 450.335 184.252 450.863 173.835C451.353 164.335 459.306 156.738 468.715 156.738C473.533 156.738 477.902 158.674 481.144 161.792L481.95 161.235C478.631 153.475 480.896 144.118 487.945 138.872L487.945 138.872C495.217 133.437 505.129 134.232 511.54 140.242L512.326 139.647C508.177 131.62 510.291 121.541 517.717 115.99C525.933 109.87 537.54 111.617 543.61 119.904C543.822 120.199 544.011 120.506 544.205 120.821C544.283 120.948 544.362 121.076 544.444 121.205L545.363 120.881C545.288 120.236 545.25 119.591 545.25 118.947C545.25 108.988 553.239 100.899 563.14 100.899C571.759 100.899 578.956 107.088 580.653 115.3L581.632 115.297C583.292 107.044 590.104 100.899 599.145 100.899C608.179 100.899 615.602 107.62 616.845 116.401L617.826 116.452C619.786 108.581 626.795 102.735 635.188 102.735Z" fill="#007578" stroke="#007578"/>
<path d="M466.849 102.735H467.349V102.701C476.539 102.928 484.258 110.461 484.739 119.753C485.267 130.17 477.051 138.791 466.849 138.791C461.914 138.791 457.473 136.817 454.235 133.55L453.435 134.131C457.546 142.12 455.431 152.199 448.007 157.711L448.005 157.712C440.734 163.146 430.821 162.351 424.411 156.342L423.625 156.936C427.774 164.963 425.66 175.042 418.234 180.593C410.018 186.713 398.409 184.966 392.34 176.678C391.923 176.104 391.547 175.535 391.211 174.933L390.28 175.251C390.351 175.716 390.352 176.148 390.352 176.66C390.352 186.619 382.363 194.708 372.462 194.708C363.843 194.708 356.646 188.519 354.95 180.307L353.97 180.31C352.311 188.563 345.498 194.708 336.458 194.708C327.423 194.708 320.001 187.988 318.757 179.206L317.777 179.155C315.816 187.026 308.807 192.872 300.414 192.872C290.212 192.872 281.996 184.252 282.524 173.835C283.014 164.335 290.967 156.738 300.376 156.738C305.194 156.738 309.562 158.674 312.805 161.792L313.611 161.235C310.292 153.475 312.557 144.118 319.606 138.872L319.606 138.872C326.878 133.437 336.79 134.232 343.2 140.242L343.987 139.647C339.837 131.62 341.952 121.541 349.378 115.99C357.594 109.87 369.201 111.617 375.271 119.904C375.483 120.199 375.672 120.506 375.866 120.821C375.944 120.948 376.023 121.076 376.105 121.205L377.024 120.881C376.949 120.236 376.911 119.591 376.911 118.947C376.911 108.988 384.9 100.899 394.801 100.899C403.42 100.899 410.617 107.088 412.313 115.3L413.293 115.297C414.952 107.044 421.765 100.899 430.805 100.899C439.84 100.899 447.263 107.62 448.506 116.401L449.487 116.452C451.447 108.581 458.456 102.735 466.849 102.735Z" fill="#007578" stroke="#007578"/>
<path d="M807.567 102.735H808.067V102.701C817.257 102.928 824.976 110.461 825.457 119.753C825.985 130.17 817.769 138.791 807.567 138.791C802.633 138.791 798.191 136.817 794.953 133.55L794.153 134.131C798.264 142.12 796.149 152.199 788.725 157.711L788.723 157.712C781.452 163.146 771.539 162.351 765.129 156.342L764.343 156.936C768.492 164.963 766.378 175.042 758.952 180.593C750.736 186.713 739.127 184.966 733.058 176.678C732.641 176.104 732.265 175.535 731.929 174.933L730.998 175.251C731.069 175.716 731.07 176.148 731.07 176.66C731.07 186.619 723.082 194.708 713.18 194.708C704.561 194.708 697.364 188.519 695.668 180.307L694.688 180.31C693.029 188.563 686.216 194.708 677.176 194.708C668.141 194.708 660.719 187.988 659.475 179.206L658.495 179.155C656.534 187.026 649.525 192.872 641.132 192.872C630.93 192.872 622.714 184.252 623.242 173.835C623.732 164.335 631.685 156.738 641.094 156.738C645.912 156.738 650.281 158.674 653.523 161.792L654.329 161.235C651.01 153.475 653.275 144.118 660.324 138.872L660.324 138.872C667.596 133.437 677.508 134.232 683.919 140.242L684.705 139.647C680.555 131.62 682.67 121.541 690.096 115.99C698.312 109.87 709.919 111.617 715.989 119.904C716.201 120.199 716.39 120.506 716.584 120.821C716.662 120.948 716.741 121.076 716.823 121.205L717.742 120.881C717.667 120.236 717.629 119.591 717.629 118.947C717.629 108.988 725.618 100.899 735.519 100.899C744.138 100.899 751.335 107.088 753.031 115.3L754.011 115.297C755.67 107.044 762.483 100.899 771.524 100.899C780.558 100.899 787.981 107.62 789.224 116.401L790.205 116.452C792.165 108.581 799.174 102.735 807.567 102.735Z" fill="#007578" stroke="#007578"/>
<path d="M979.227 102.735H979.727V102.701C988.917 102.928 996.636 110.461 997.117 119.753C997.645 130.17 989.429 138.791 979.227 138.791C974.293 138.791 969.851 136.817 966.613 133.55L965.813 134.131C969.924 142.12 967.809 152.199 960.385 157.711L960.383 157.712C953.112 163.146 943.2 162.351 936.789 156.342L936.003 156.936C940.152 164.963 938.038 175.042 930.612 180.593C922.396 186.713 910.788 184.966 904.718 176.678C904.301 176.104 903.926 175.535 903.589 174.933L902.658 175.251C902.729 175.716 902.73 176.148 902.73 176.66C902.73 186.619 894.742 194.708 884.841 194.708C876.222 194.708 869.024 188.519 867.328 180.307L866.348 180.31C864.689 188.563 857.876 194.708 848.836 194.708C839.801 194.708 832.379 187.988 831.135 179.206L830.155 179.155C828.194 187.026 821.185 192.872 812.792 192.872C802.59 192.872 794.375 184.252 794.902 173.835C795.392 164.335 803.345 156.738 812.754 156.738C817.572 156.738 821.941 158.674 825.183 161.792L825.989 161.235C822.67 153.475 824.935 144.118 831.984 138.872L831.985 138.872C839.256 133.437 849.168 134.232 855.579 140.242L856.365 139.647C852.216 131.62 854.33 121.541 861.756 115.99C869.972 109.87 881.58 111.617 887.649 119.905C887.861 120.199 888.05 120.506 888.244 120.821C888.322 120.948 888.401 121.076 888.483 121.205L889.402 120.881C889.327 120.236 889.289 119.591 889.289 118.947C889.289 108.988 897.278 100.899 907.179 100.899C915.798 100.899 922.995 107.088 924.692 115.3L925.671 115.297C927.331 107.044 934.143 100.899 943.184 100.899C952.218 100.899 959.641 107.62 960.885 116.401L961.865 116.452C963.825 108.581 970.834 102.735 979.227 102.735Z" fill="#007578" stroke="#007578"/>
<path d="M325.625 205.444H326.125V205.41C335.315 205.637 343.034 213.169 343.515 222.462C344.043 232.879 335.827 241.5 325.625 241.5C320.69 241.5 316.249 239.526 313.01 236.259L312.211 236.84C316.322 244.829 314.207 254.908 306.782 260.42L306.781 260.421C299.51 265.855 289.597 265.06 283.187 259.051L282.401 259.645C286.55 267.672 284.436 277.751 277.01 283.302C268.794 289.422 257.185 287.675 251.116 279.387C250.699 278.813 250.323 278.244 249.987 277.642L249.056 277.96C249.127 278.425 249.128 278.857 249.128 279.369C249.128 289.328 241.139 297.417 231.238 297.417C222.619 297.417 215.422 291.228 213.726 283.016L212.746 283.019C211.087 291.272 204.274 297.417 195.234 297.417C186.199 297.417 178.776 290.697 177.533 281.915L176.552 281.864C174.592 289.735 167.583 295.581 159.19 295.581C148.988 295.581 140.772 286.961 141.3 276.544C141.79 267.044 149.742 259.447 159.151 259.447C163.97 259.447 168.338 261.383 171.581 264.501L172.387 263.944C169.068 256.184 171.333 246.827 178.381 241.581L178.382 241.581C185.654 236.146 195.566 236.941 201.976 242.951L202.763 242.356C198.613 234.329 200.728 224.25 208.154 218.699C216.37 212.579 227.977 214.326 234.047 222.614C234.259 222.908 234.448 223.215 234.642 223.53C234.72 223.657 234.799 223.785 234.88 223.914L235.8 223.59C235.725 222.945 235.687 222.3 235.687 221.656C235.687 211.697 243.676 203.608 253.577 203.608C262.196 203.608 269.393 209.797 271.089 218.009L272.069 218.006C273.728 209.753 280.541 203.608 289.581 203.608C298.616 203.608 306.038 210.328 307.282 219.11L308.262 219.161C310.223 211.29 317.232 205.444 325.625 205.444Z" fill="#007578" stroke="#007578"/>
<path d="M496.567 205.444H497.067V205.41C506.257 205.637 513.976 213.169 514.457 222.462C514.985 232.879 506.769 241.5 496.567 241.5C491.633 241.5 487.191 239.526 483.953 236.259L483.153 236.84C487.264 244.829 485.149 254.908 477.725 260.42L477.723 260.421C470.452 265.855 460.539 265.06 454.129 259.051L453.343 259.645C457.492 267.672 455.378 277.751 447.952 283.302C439.736 289.422 428.127 287.675 422.058 279.387C421.641 278.813 421.265 278.244 420.929 277.642L419.998 277.96C420.069 278.425 420.07 278.857 420.07 279.369C420.07 289.328 412.082 297.417 402.18 297.417C393.561 297.417 386.364 291.228 384.668 283.016L383.688 283.019C382.029 291.272 375.216 297.417 366.176 297.417C357.141 297.417 349.719 290.697 348.475 281.915L347.495 281.864C345.534 289.735 338.525 295.581 330.132 295.581C319.93 295.581 311.714 286.961 312.242 276.544C312.732 267.044 320.685 259.447 330.094 259.447C334.912 259.447 339.281 261.383 342.523 264.501L343.329 263.944C340.01 256.184 342.275 246.827 349.324 241.581L349.324 241.581C356.596 236.146 366.508 236.941 372.919 242.951L373.705 242.356C369.555 234.329 371.67 224.25 379.096 218.699C387.312 212.579 398.919 214.326 404.989 222.613C405.201 222.908 405.39 223.215 405.584 223.53C405.662 223.657 405.741 223.785 405.823 223.914L406.742 223.59C406.667 222.945 406.629 222.3 406.629 221.656C406.629 211.697 414.618 203.608 424.519 203.608C433.138 203.608 440.335 209.797 442.031 218.009L443.011 218.006C444.67 209.753 451.483 203.608 460.524 203.608C469.558 203.608 476.981 210.328 478.224 219.11L479.205 219.161C481.165 211.29 488.174 205.444 496.567 205.444Z" fill="#007578" stroke="#007578"/>
<path d="M668.946 205.444H669.446V205.41C678.636 205.637 686.354 213.169 686.836 222.462C687.363 232.879 679.148 241.5 668.946 241.5C664.011 241.5 659.57 239.526 656.331 236.259L655.532 236.84C659.643 244.829 657.528 254.908 650.103 260.42L650.102 260.421C642.83 265.855 632.918 265.06 626.508 259.051L625.722 259.645C629.871 267.672 627.756 277.751 620.331 283.302C612.115 289.422 600.506 287.675 594.437 279.387C594.019 278.813 593.644 278.244 593.308 277.642L592.377 277.96C592.448 278.425 592.449 278.857 592.449 279.369C592.449 289.328 584.46 297.417 574.559 297.417C565.94 297.417 558.743 291.228 557.046 283.016L556.066 283.019C554.407 291.272 547.595 297.417 538.554 297.417C529.52 297.417 522.097 290.697 520.853 281.915L519.873 281.864C517.913 289.735 510.904 295.581 502.511 295.581C492.309 295.581 484.093 286.961 484.621 276.544C485.111 267.044 493.063 259.447 502.472 259.447C507.29 259.447 511.659 261.383 514.901 264.501L515.708 263.944C512.389 256.184 514.654 246.827 521.702 241.581L521.703 241.581C528.975 236.146 538.887 236.941 545.297 242.951L546.083 242.356C541.934 234.329 544.049 224.25 551.474 218.699C559.69 212.579 571.298 214.326 577.368 222.613C577.58 222.908 577.769 223.215 577.963 223.53C578.041 223.657 578.12 223.785 578.201 223.914L579.121 223.59C579.046 222.945 579.008 222.3 579.008 221.656C579.008 211.697 586.996 203.608 596.897 203.608C605.516 203.608 612.714 209.797 614.41 218.009L615.39 218.006C617.049 209.753 623.862 203.608 632.902 203.608C641.937 203.608 649.359 210.328 650.603 219.11L651.583 219.161C653.544 211.29 660.553 205.444 668.946 205.444Z" fill="#007578" stroke="#007578"/>
<path d="M839.888 205.444H840.388V205.41C849.578 205.637 857.297 213.169 857.778 222.462C858.306 232.879 850.09 241.5 839.888 241.5C834.954 241.5 830.512 239.526 827.274 236.259L826.474 236.84C830.585 244.829 828.47 254.908 821.046 260.42L821.044 260.421C813.773 265.855 803.86 265.06 797.45 259.051L796.664 259.645C800.813 267.672 798.699 277.751 791.273 283.302C783.057 289.422 771.449 287.675 765.379 279.387C764.962 278.813 764.586 278.244 764.25 277.642L763.319 277.96C763.39 278.425 763.391 278.857 763.391 279.369C763.391 289.328 755.403 297.417 745.501 297.417C736.882 297.417 729.685 291.228 727.989 283.016L727.009 283.019C725.35 291.272 718.537 297.417 709.497 297.417C700.462 297.417 693.04 290.697 691.796 281.915L690.816 281.864C688.855 289.735 681.846 295.581 673.453 295.581C663.251 295.581 655.035 286.961 655.563 276.544C656.053 267.044 664.006 259.447 673.415 259.447C678.233 259.447 682.602 261.383 685.844 264.501L686.65 263.944C683.331 256.184 685.596 246.827 692.645 241.581L692.645 241.581C699.917 236.146 709.829 236.941 716.24 242.951L717.026 242.356C712.877 234.329 714.991 224.25 722.417 218.699C730.633 212.579 742.241 214.326 748.31 222.614C748.522 222.908 748.711 223.215 748.905 223.53C748.983 223.657 749.062 223.785 749.144 223.914L750.063 223.59C749.988 222.945 749.95 222.3 749.95 221.656C749.95 211.697 757.939 203.608 767.84 203.608C776.459 203.608 783.656 209.797 785.353 218.009L786.332 218.006C787.992 209.753 794.804 203.608 803.845 203.608C812.879 203.608 820.302 210.328 821.545 219.11L822.526 219.161C824.486 211.29 831.495 205.444 839.888 205.444Z" fill="#007578" stroke="#007578"/>
<path d="M184.849 308.139H185.349V308.105C194.542 308.331 202.258 315.808 202.739 325.026C203.266 335.357 195.055 343.914 184.849 343.914C179.913 343.914 175.471 341.954 172.233 338.713L171.436 339.297C175.545 347.222 173.432 357.221 166.008 362.69L166.007 362.691C158.734 368.085 148.82 367.296 142.41 361.332L141.626 361.929C145.773 369.892 143.661 379.891 136.236 385.4C128.018 391.474 116.408 389.739 110.339 381.514C109.922 380.945 109.546 380.381 109.21 379.783L108.28 380.104C108.351 380.564 108.352 380.992 108.352 381.5C108.352 391.378 100.367 399.407 90.4624 399.407C81.8406 399.407 74.6449 393.264 72.9495 385.118L71.97 385.121C70.3116 393.307 63.5009 399.407 54.4576 399.407C45.4202 399.407 37.9999 392.736 36.7567 384.026L35.7768 383.975C33.8173 391.783 26.8097 397.586 18.4142 397.586C8.20838 397.586 -0.00320875 389.029 0.524063 378.697C1.01368 369.275 8.96316 361.733 18.3755 361.733C23.1949 361.733 27.5641 363.654 30.8062 366.749L31.6106 366.189C28.2932 358.491 30.5563 349.209 37.6041 344.003L37.6049 344.002C44.8774 338.609 54.7914 339.398 61.2019 345.362L61.9859 344.765C57.8385 336.802 59.9511 326.802 67.3763 321.294C75.5938 315.219 87.2032 316.955 93.2721 325.179C93.4842 325.471 93.6728 325.775 93.867 326.088C93.945 326.214 94.0238 326.341 94.1055 326.469L95.024 326.143C94.9488 325.503 94.9113 324.864 94.9113 324.225C94.9113 314.347 102.896 306.317 112.801 306.317C121.423 306.317 128.618 312.461 130.314 320.606L131.293 320.604C132.951 312.417 139.762 306.317 148.805 306.317C157.843 306.317 165.263 312.988 166.506 321.699L167.486 321.75C169.446 313.942 176.453 308.139 184.849 308.139Z" fill="#007578" stroke="#007578"/>
<path d="M355.791 308.139H356.291V308.105C365.484 308.331 373.2 315.808 373.681 325.026C374.208 335.357 365.997 343.914 355.791 343.914C350.855 343.914 346.413 341.954 343.175 338.713L342.377 339.297C346.487 347.222 344.374 357.221 336.95 362.69L336.949 362.691C329.676 368.085 319.762 367.296 313.352 361.332L312.568 361.929C316.715 369.892 314.602 379.891 307.178 385.4C298.96 391.474 287.35 389.739 281.281 381.515C280.864 380.945 280.488 380.381 280.152 379.783L279.222 380.104C279.293 380.564 279.294 380.992 279.294 381.5C279.294 391.378 271.309 399.407 261.404 399.407C252.782 399.407 245.587 393.264 243.891 385.118L242.912 385.121C241.254 393.307 234.443 399.407 225.4 399.407C216.362 399.407 208.942 392.736 207.699 384.026L206.719 383.975C204.759 391.783 197.752 397.586 189.356 397.586C179.15 397.586 170.939 389.029 171.466 378.697C171.956 369.275 179.905 361.733 189.317 361.733C194.137 361.733 198.506 363.654 201.748 366.749L202.552 366.189C199.235 358.491 201.498 349.209 208.546 344.003L208.547 344.002C215.819 338.609 225.733 339.398 232.144 345.362L232.928 344.765C228.78 336.802 230.893 326.802 238.318 321.294C246.536 315.219 258.145 316.955 264.214 325.179C264.426 325.471 264.615 325.775 264.809 326.088C264.887 326.214 264.966 326.341 265.047 326.469L265.966 326.143C265.891 325.503 265.853 324.864 265.853 324.225C265.853 314.347 273.838 306.317 283.743 306.317C292.364 306.317 299.56 312.461 301.256 320.606L302.235 320.604C303.893 312.417 310.704 306.317 319.747 306.317C328.785 306.317 336.205 312.988 337.448 321.699L338.428 321.75C340.388 313.942 347.395 308.139 355.791 308.139Z" fill="#007578" stroke="#007578"/>
<path d="M528.17 308.139H528.67V308.105C537.863 308.331 545.579 315.808 546.06 325.026C546.587 335.357 538.375 343.914 528.17 343.914C523.234 343.914 518.792 341.954 515.554 338.713L514.756 339.297C518.866 347.222 516.753 357.221 509.329 362.69L509.328 362.691C502.055 368.085 492.141 367.296 485.73 361.332L484.946 361.929C489.094 369.892 486.981 379.891 479.557 385.4C471.339 391.474 459.729 389.739 453.66 381.515C453.243 380.945 452.867 380.381 452.531 379.783L451.601 380.104C451.672 380.564 451.673 380.992 451.673 381.5C451.673 391.378 443.688 399.407 433.783 399.407C425.161 399.407 417.966 393.264 416.27 385.118L415.291 385.121C413.632 393.307 406.822 399.407 397.778 399.407C388.741 399.407 381.321 392.736 380.078 384.026L379.098 383.975C377.138 391.783 370.131 397.586 361.735 397.586C351.529 397.586 343.318 389.029 343.845 378.697C344.334 369.275 352.284 361.733 361.696 361.733C366.516 361.733 370.885 363.654 374.127 366.749L374.931 366.189C371.614 358.491 373.877 349.209 380.925 344.003L380.926 344.002C388.198 338.609 398.112 339.398 404.523 345.362L405.307 344.765C401.159 336.802 403.272 326.802 410.697 321.294C418.914 315.219 430.524 316.955 436.593 325.178C436.805 325.47 436.994 325.775 437.188 326.088C437.266 326.214 437.345 326.341 437.426 326.469L438.345 326.143C438.27 325.503 438.232 324.864 438.232 324.225C438.232 314.347 446.217 306.317 456.122 306.317C464.743 306.317 471.939 312.461 473.634 320.606L474.614 320.604C476.272 312.417 483.083 306.317 492.126 306.317C501.164 306.317 508.584 312.988 509.827 321.699L510.807 321.75C512.767 313.942 519.774 308.139 528.17 308.139Z" fill="#007578" stroke="#007578"/>
<path d="M699.112 308.139H699.612V308.105C708.805 308.331 716.521 315.808 717.002 325.026C717.529 335.357 709.318 343.914 699.112 343.914C694.176 343.914 689.734 341.954 686.496 338.713L685.699 339.297C689.808 347.222 687.695 357.221 680.271 362.69L680.27 362.691C672.997 368.085 663.083 367.296 656.673 361.332L655.889 361.929C660.036 369.892 657.924 379.891 650.499 385.4C642.281 391.474 630.671 389.739 624.602 381.514C624.185 380.945 623.81 380.381 623.474 379.783L622.543 380.104C622.614 380.564 622.615 380.992 622.615 381.5C622.615 391.378 614.63 399.407 604.726 399.407C596.104 399.407 588.908 393.264 587.213 385.118L586.233 385.121C584.575 393.307 577.764 399.407 568.721 399.407C559.683 399.407 552.263 392.736 551.02 384.026L550.04 383.975C548.08 391.783 541.073 397.586 532.677 397.586C522.472 397.586 514.26 389.029 514.787 378.697C515.277 369.275 523.226 361.733 532.639 361.733C537.458 361.733 541.827 363.654 545.069 366.749L545.874 366.189C542.556 358.491 544.819 349.209 551.867 344.003L551.868 344.002C559.141 338.609 569.055 339.398 575.465 345.362L576.249 344.765C572.102 336.802 574.214 326.802 581.64 321.294C589.857 315.219 601.466 316.955 607.535 325.179C607.747 325.471 607.936 325.775 608.13 326.088C608.208 326.214 608.287 326.341 608.369 326.469L609.287 326.143C609.212 325.503 609.174 324.864 609.174 324.225C609.174 314.347 617.159 306.317 627.064 306.317C635.686 306.317 642.881 312.461 644.577 320.606L645.556 320.604C647.215 312.417 654.025 306.317 663.069 306.317C672.106 306.317 679.526 312.988 680.77 321.699L681.75 321.75C683.709 313.942 690.717 308.139 699.112 308.139Z" fill="#007578" stroke="#007578"/>
<path d="M589.903 879.158H589.477C586.664 879.158 584.303 881.143 583.641 883.833L582.66 883.783C582.24 880.782 579.739 878.5 576.71 878.5C573.674 878.5 571.384 880.583 570.824 883.405L569.843 883.407C569.271 880.602 566.845 878.5 563.956 878.5C560.636 878.5 557.942 881.248 557.942 884.652C557.942 884.87 557.955 885.089 557.98 885.309L557.059 885.63C557.026 885.577 556.996 885.527 556.967 885.479C556.901 885.371 556.843 885.276 556.776 885.181C554.73 882.355 550.825 881.762 548.062 883.846C545.56 885.74 544.843 889.184 546.245 891.93L545.455 892.52C543.295 890.47 539.962 890.202 537.517 892.052L537.516 892.053C535.142 893.841 534.374 897.038 535.495 899.693L534.686 900.245C533.593 899.182 532.125 898.525 530.509 898.525C527.356 898.525 524.673 901.108 524.508 904.351C524.33 907.912 527.102 910.842 530.523 910.842C533.336 910.842 535.697 908.857 536.359 906.167L537.34 906.217C537.76 909.218 540.261 911.5 543.29 911.5C546.326 911.5 548.616 909.417 549.176 906.595L550.157 906.593C550.729 909.398 553.155 911.5 556.044 911.5C559.364 911.5 562.058 908.752 562.058 905.348C562.058 905.162 562.057 905.03 562.036 904.891L562.968 904.575C563.08 904.777 563.205 904.97 563.347 905.168C565.393 907.995 569.297 908.588 572.061 906.504L589.903 879.158ZM589.903 879.158C592.869 879.367 595.334 881.873 595.492 884.957C595.67 888.518 592.898 891.447 589.477 891.447C587.82 891.447 586.329 890.777 585.24 889.665L584.438 890.241C585.826 892.974 585.109 896.418 582.608 898.297L582.607 898.298C580.162 900.148 576.828 899.88 574.668 897.83L573.879 898.42C575.28 901.166 574.563 904.61 572.062 906.504L589.903 879.158Z" fill="#007578" stroke="#007578"/>
<g filter="url(#filter0_d_100_35)">
<path d="M206 274L138 323" stroke="#E2C0FF" stroke-width="1.5" stroke-dasharray="8 8"/>
</g>
<g filter="url(#filter1_d_100_35)">
<path d="M377 274L309 323" stroke="#E2C0FF" stroke-width="1.5" stroke-dasharray="8 8"/>
</g>
<g filter="url(#filter2_d_100_35)">
<path d="M419.307 348.678L318 348.988" stroke="#E2C0FF" stroke-width="1.5" stroke-dasharray="8 8"/>
</g>
<g filter="url(#filter3_d_100_35)">
<path d="M561.307 246.678L460 246.988" stroke="#E2C0FF" stroke-width="1.5" stroke-dasharray="8 8"/>
</g>
<g filter="url(#filter4_d_100_35)">
<path d="M692.307 142.678L591 142.988" stroke="#E2C0FF" stroke-width="1.5" stroke-dasharray="8 8"/>
</g>
<g filter="url(#filter5_d_100_35)">
<path d="M826.307 46.678L725 46.9881" stroke="#E2C0FF" stroke-width="1.5" stroke-dasharray="8 8"/>
</g>
<g filter="url(#filter6_d_100_35)">
<path d="M247.307 348.678L146 348.988" stroke="#E2C0FF" stroke-width="1.5" stroke-dasharray="8 8"/>
</g>
<g filter="url(#filter7_d_100_35)">
<path d="M389.307 246.678L288 246.988" stroke="#E2C0FF" stroke-width="1.5" stroke-dasharray="8 8"/>
</g>
<g filter="url(#filter8_d_100_35)">
<path d="M520.307 142.678L419 142.988" stroke="#E2C0FF" stroke-width="1.5" stroke-dasharray="8 8"/>
</g>
<g filter="url(#filter9_d_100_35)">
<path d="M654.307 46.678L553 46.9881" stroke="#E2C0FF" stroke-width="1.5" stroke-dasharray="8 8"/>
</g>
<g filter="url(#filter10_d_100_35)">
<path d="M590.307 348.678L489 348.988" stroke="#E2C0FF" stroke-width="1.5" stroke-dasharray="8 8"/>
</g>
<g filter="url(#filter11_d_100_35)">
<path d="M732.307 246.678L631 246.988" stroke="#E2C0FF" stroke-width="1.5" stroke-dasharray="8 8"/>
</g>
<g filter="url(#filter12_d_100_35)">
<path d="M863.307 142.678L762 142.988" stroke="#E2C0FF" stroke-width="1.5" stroke-dasharray="8 8"/>
</g>
<g filter="url(#filter13_d_100_35)">
<path d="M997.307 46.678L896 46.9881" stroke="#E2C0FF" stroke-width="1.5" stroke-dasharray="8 8"/>
</g>
<g filter="url(#filter14_d_100_35)">
<path d="M553 274L485 323" stroke="#E2C0FF" stroke-width="1.5" stroke-dasharray="8 8"/>
</g>
<g filter="url(#filter15_d_100_35)">
<path d="M720 274L652 323" stroke="#E2C0FF" stroke-width="1.5" stroke-dasharray="8 8"/>
</g>
<g filter="url(#filter16_d_100_35)">
<path d="M339 176L273 224" stroke="#E2C0FF" stroke-width="1.5" stroke-dasharray="8 8"/>
</g>
<g filter="url(#filter17_d_100_35)">
<path d="M481 72L413 122" stroke="#E2C0FF" stroke-width="1.5" stroke-dasharray="8 8"/>
</g>
<g filter="url(#filter18_d_100_35)">
<path d="M510 176L444 224" stroke="#E2C0FF" stroke-width="1.5" stroke-dasharray="8 8"/>
</g>
<g filter="url(#filter19_d_100_35)">
<path d="M652 72L584 122" stroke="#E2C0FF" stroke-width="1.5" stroke-dasharray="8 8"/>
</g>
<g filter="url(#filter20_d_100_35)">
<path d="M686 176L620 224" stroke="#E2C0FF" stroke-width="1.5" stroke-dasharray="8 8"/>
</g>
<g filter="url(#filter21_d_100_35)">
<path d="M828 72L760 122" stroke="#E2C0FF" stroke-width="1.5" stroke-dasharray="8 8"/>
</g>
<g filter="url(#filter22_d_100_35)">
<path d="M853 176L787 224" stroke="#E2C0FF" stroke-width="1.5" stroke-dasharray="8 8"/>
</g>
<g filter="url(#filter23_d_100_35)">
<path d="M995 72L927 122" stroke="#E2C0FF" stroke-width="1.5" stroke-dasharray="8 8"/>
</g>
<defs>
<filter id="filter0_d_100_35" x="136.962" y="272.791" width="72.077" height="53.417" filterUnits="userSpaceOnUse" color-interpolation-filters="sRGB">
<feFlood flood-opacity="0" result="BackgroundImageFix"/>
<feColorMatrix in="SourceAlpha" type="matrix" values="0 0 0 0 0 0 0 0 0 0 0 0 0 0 0 0 0 0 127 0" result="hardAlpha"/>
<feOffset dx="1" dy="1"/>
<feGaussianBlur stdDeviation="0.8"/>
<feComposite in2="hardAlpha" operator="out"/>
<feColorMatrix type="matrix" values="0 0 0 0 0 0 0 0 0 0 0 0 0 0 0 0 0 0 0.25 0"/>
<feBlend mode="normal" in2="BackgroundImageFix" result="effect1_dropShadow_100_35"/>
<feBlend mode="normal" in="SourceGraphic" in2="effect1_dropShadow_100_35" result="shape"/>
</filter>
<filter id="filter1_d_100_35" x="307.962" y="272.791" width="72.077" height="53.417" filterUnits="userSpaceOnUse" color-interpolation-filters="sRGB">
<feFlood flood-opacity="0" result="BackgroundImageFix"/>
<feColorMatrix in="SourceAlpha" type="matrix" values="0 0 0 0 0 0 0 0 0 0 0 0 0 0 0 0 0 0 127 0" result="hardAlpha"/>
<feOffset dx="1" dy="1"/>
<feGaussianBlur stdDeviation="0.8"/>
<feComposite in2="hardAlpha" operator="out"/>
<feColorMatrix type="matrix" values="0 0 0 0 0 0 0 0 0 0 0 0 0 0 0 0 0 0 0.25 0"/>
<feBlend mode="normal" in2="BackgroundImageFix" result="effect1_dropShadow_100_35"/>
<feBlend mode="normal" in="SourceGraphic" in2="effect1_dropShadow_100_35" result="shape"/>
</filter>
<filter id="filter2_d_100_35" x="317.398" y="347.328" width="104.512" height="5.01018" filterUnits="userSpaceOnUse" color-interpolation-filters="sRGB">
<feFlood flood-opacity="0" result="BackgroundImageFix"/>
<feColorMatrix in="SourceAlpha" type="matrix" values="0 0 0 0 0 0 0 0 0 0 0 0 0 0 0 0 0 0 127 0" result="hardAlpha"/>
<feOffset dx="1" dy="1"/>
<feGaussianBlur stdDeviation="0.8"/>
<feComposite in2="hardAlpha" operator="out"/>
<feColorMatrix type="matrix" values="0 0 0 0 0 0 0 0 0 0 0 0 0 0 0 0 0 0 0.25 0"/>
<feBlend mode="normal" in2="BackgroundImageFix" result="effect1_dropShadow_100_35"/>
<feBlend mode="normal" in="SourceGraphic" in2="effect1_dropShadow_100_35" result="shape"/>
</filter>
<filter id="filter3_d_100_35" x="459.398" y="245.328" width="104.512" height="5.01018" filterUnits="userSpaceOnUse" color-interpolation-filters="sRGB">
<feFlood flood-opacity="0" result="BackgroundImageFix"/>
<feColorMatrix in="SourceAlpha" type="matrix" values="0 0 0 0 0 0 0 0 0 0 0 0 0 0 0 0 0 0 127 0" result="hardAlpha"/>
<feOffset dx="1" dy="1"/>
<feGaussianBlur stdDeviation="0.8"/>
<feComposite in2="hardAlpha" operator="out"/>
<feColorMatrix type="matrix" values="0 0 0 0 0 0 0 0 0 0 0 0 0 0 0 0 0 0 0.25 0"/>
<feBlend mode="normal" in2="BackgroundImageFix" result="effect1_dropShadow_100_35"/>
<feBlend mode="normal" in="SourceGraphic" in2="effect1_dropShadow_100_35" result="shape"/>
</filter>
<filter id="filter4_d_100_35" x="590.398" y="141.328" width="104.512" height="5.01018" filterUnits="userSpaceOnUse" color-interpolation-filters="sRGB">
<feFlood flood-opacity="0" result="BackgroundImageFix"/>
<feColorMatrix in="SourceAlpha" type="matrix" values="0 0 0 0 0 0 0 0 0 0 0 0 0 0 0 0 0 0 127 0" result="hardAlpha"/>
<feOffset dx="1" dy="1"/>
<feGaussianBlur stdDeviation="0.8"/>
<feComposite in2="hardAlpha" operator="out"/>
<feColorMatrix type="matrix" values="0 0 0 0 0 0 0 0 0 0 0 0 0 0 0 0 0 0 0.25 0"/>
<feBlend mode="normal" in2="BackgroundImageFix" result="effect1_dropShadow_100_35"/>
<feBlend mode="normal" in="SourceGraphic" in2="effect1_dropShadow_100_35" result="shape"/>
</filter>
<filter id="filter5_d_100_35" x="724.398" y="45.328" width="104.512" height="5.01018" filterUnits="userSpaceOnUse" color-interpolation-filters="sRGB">
<feFlood flood-opacity="0" result="BackgroundImageFix"/>
<feColorMatrix in="SourceAlpha" type="matrix" values="0 0 0 0 0 0 0 0 0 0 0 0 0 0 0 0 0 0 127 0" result="hardAlpha"/>
<feOffset dx="1" dy="1"/>
<feGaussianBlur stdDeviation="0.8"/>
<feComposite in2="hardAlpha" operator="out"/>
<feColorMatrix type="matrix" values="0 0 0 0 0 0 0 0 0 0 0 0 0 0 0 0 0 0 0.25 0"/>
<feBlend mode="normal" in2="BackgroundImageFix" result="effect1_dropShadow_100_35"/>
<feBlend mode="normal" in="SourceGraphic" in2="effect1_dropShadow_100_35" result="shape"/>
</filter>
<filter id="filter6_d_100_35" x="145.398" y="347.328" width="104.512" height="5.01018" filterUnits="userSpaceOnUse" color-interpolation-filters="sRGB">
<feFlood flood-opacity="0" result="BackgroundImageFix"/>
<feColorMatrix in="SourceAlpha" type="matrix" values="0 0 0 0 0 0 0 0 0 0 0 0 0 0 0 0 0 0 127 0" result="hardAlpha"/>
<feOffset dx="1" dy="1"/>
<feGaussianBlur stdDeviation="0.8"/>
<feComposite in2="hardAlpha" operator="out"/>
<feColorMatrix type="matrix" values="0 0 0 0 0 0 0 0 0 0 0 0 0 0 0 0 0 0 0.25 0"/>
<feBlend mode="normal" in2="BackgroundImageFix" result="effect1_dropShadow_100_35"/>
<feBlend mode="normal" in="SourceGraphic" in2="effect1_dropShadow_100_35" result="shape"/>
</filter>
<filter id="filter7_d_100_35" x="287.398" y="245.328" width="104.512" height="5.01018" filterUnits="userSpaceOnUse" color-interpolation-filters="sRGB">
<feFlood flood-opacity="0" result="BackgroundImageFix"/>
<feColorMatrix in="SourceAlpha" type="matrix" values="0 0 0 0 0 0 0 0 0 0 0 0 0 0 0 0 0 0 127 0" result="hardAlpha"/>
<feOffset dx="1" dy="1"/>
<feGaussianBlur stdDeviation="0.8"/>
<feComposite in2="hardAlpha" operator="out"/>
<feColorMatrix type="matrix" values="0 0 0 0 0 0 0 0 0 0 0 0 0 0 0 0 0 0 0.25 0"/>
<feBlend mode="normal" in2="BackgroundImageFix" result="effect1_dropShadow_100_35"/>
<feBlend mode="normal" in="SourceGraphic" in2="effect1_dropShadow_100_35" result="shape"/>
</filter>
<filter id="filter8_d_100_35" x="418.398" y="141.328" width="104.512" height="5.01018" filterUnits="userSpaceOnUse" color-interpolation-filters="sRGB">
<feFlood flood-opacity="0" result="BackgroundImageFix"/>
<feColorMatrix in="SourceAlpha" type="matrix" values="0 0 0 0 0 0 0 0 0 0 0 0 0 0 0 0 0 0 127 0" result="hardAlpha"/>
<feOffset dx="1" dy="1"/>
<feGaussianBlur stdDeviation="0.8"/>
<feComposite in2="hardAlpha" operator="out"/>
<feColorMatrix type="matrix" values="0 0 0 0 0 0 0 0 0 0 0 0 0 0 0 0 0 0 0.25 0"/>
<feBlend mode="normal" in2="BackgroundImageFix" result="effect1_dropShadow_100_35"/>
<feBlend mode="normal" in="SourceGraphic" in2="effect1_dropShadow_100_35" result="shape"/>
</filter>
<filter id="filter9_d_100_35" x="552.398" y="45.328" width="104.512" height="5.01018" filterUnits="userSpaceOnUse" color-interpolation-filters="sRGB">
<feFlood flood-opacity="0" result="BackgroundImageFix"/>
<feColorMatrix in="SourceAlpha" type="matrix" values="0 0 0 0 0 0 0 0 0 0 0 0 0 0 0 0 0 0 127 0" result="hardAlpha"/>
<feOffset dx="1" dy="1"/>
<feGaussianBlur stdDeviation="0.8"/>
<feComposite in2="hardAlpha" operator="out"/>
<feColorMatrix type="matrix" values="0 0 0 0 0 0 0 0 0 0 0 0 0 0 0 0 0 0 0.25 0"/>
<feBlend mode="normal" in2="BackgroundImageFix" result="effect1_dropShadow_100_35"/>
<feBlend mode="normal" in="SourceGraphic" in2="effect1_dropShadow_100_35" result="shape"/>
</filter>
<filter id="filter10_d_100_35" x="488.398" y="347.328" width="104.512" height="5.01018" filterUnits="userSpaceOnUse" color-interpolation-filters="sRGB">
<feFlood flood-opacity="0" result="BackgroundImageFix"/>
<feColorMatrix in="SourceAlpha" type="matrix" values="0 0 0 0 0 0 0 0 0 0 0 0 0 0 0 0 0 0 127 0" result="hardAlpha"/>
<feOffset dx="1" dy="1"/>
<feGaussianBlur stdDeviation="0.8"/>
<feComposite in2="hardAlpha" operator="out"/>
<feColorMatrix type="matrix" values="0 0 0 0 0 0 0 0 0 0 0 0 0 0 0 0 0 0 0.25 0"/>
<feBlend mode="normal" in2="BackgroundImageFix" result="effect1_dropShadow_100_35"/>
<feBlend mode="normal" in="SourceGraphic" in2="effect1_dropShadow_100_35" result="shape"/>
</filter>
<filter id="filter11_d_100_35" x="630.398" y="245.328" width="104.512" height="5.01018" filterUnits="userSpaceOnUse" color-interpolation-filters="sRGB">
<feFlood flood-opacity="0" result="BackgroundImageFix"/>
<feColorMatrix in="SourceAlpha" type="matrix" values="0 0 0 0 0 0 0 0 0 0 0 0 0 0 0 0 0 0 127 0" result="hardAlpha"/>
<feOffset dx="1" dy="1"/>
<feGaussianBlur stdDeviation="0.8"/>
<feComposite in2="hardAlpha" operator="out"/>
<feColorMatrix type="matrix" values="0 0 0 0 0 0 0 0 0 0 0 0 0 0 0 0 0 0 0.25 0"/>
<feBlend mode="normal" in2="BackgroundImageFix" result="effect1_dropShadow_100_35"/>
<feBlend mode="normal" in="SourceGraphic" in2="effect1_dropShadow_100_35" result="shape"/>
</filter>
<filter id="filter12_d_100_35" x="761.398" y="141.328" width="104.512" height="5.01018" filterUnits="userSpaceOnUse" color-interpolation-filters="sRGB">
<feFlood flood-opacity="0" result="BackgroundImageFix"/>
<feColorMatrix in="SourceAlpha" type="matrix" values="0 0 0 0 0 0 0 0 0 0 0 0 0 0 0 0 0 0 127 0" result="hardAlpha"/>
<feOffset dx="1" dy="1"/>
<feGaussianBlur stdDeviation="0.8"/>
<feComposite in2="hardAlpha" operator="out"/>
<feColorMatrix type="matrix" values="0 0 0 0 0 0 0 0 0 0 0 0 0 0 0 0 0 0 0.25 0"/>
<feBlend mode="normal" in2="BackgroundImageFix" result="effect1_dropShadow_100_35"/>
<feBlend mode="normal" in="SourceGraphic" in2="effect1_dropShadow_100_35" result="shape"/>
</filter>
<filter id="filter13_d_100_35" x="895.398" y="45.328" width="104.512" height="5.01018" filterUnits="userSpaceOnUse" color-interpolation-filters="sRGB">
<feFlood flood-opacity="0" result="BackgroundImageFix"/>
<feColorMatrix in="SourceAlpha" type="matrix" values="0 0 0 0 0 0 0 0 0 0 0 0 0 0 0 0 0 0 127 0" result="hardAlpha"/>
<feOffset dx="1" dy="1"/>
<feGaussianBlur stdDeviation="0.8"/>
<feComposite in2="hardAlpha" operator="out"/>
<feColorMatrix type="matrix" values="0 0 0 0 0 0 0 0 0 0 0 0 0 0 0 0 0 0 0.25 0"/>
<feBlend mode="normal" in2="BackgroundImageFix" result="effect1_dropShadow_100_35"/>
<feBlend mode="normal" in="SourceGraphic" in2="effect1_dropShadow_100_35" result="shape"/>
</filter>
<filter id="filter14_d_100_35" x="483.962" y="272.791" width="72.077" height="53.417" filterUnits="userSpaceOnUse" color-interpolation-filters="sRGB">
<feFlood flood-opacity="0" result="BackgroundImageFix"/>
<feColorMatrix in="SourceAlpha" type="matrix" values="0 0 0 0 0 0 0 0 0 0 0 0 0 0 0 0 0 0 127 0" result="hardAlpha"/>
<feOffset dx="1" dy="1"/>
<feGaussianBlur stdDeviation="0.8"/>
<feComposite in2="hardAlpha" operator="out"/>
<feColorMatrix type="matrix" values="0 0 0 0 0 0 0 0 0 0 0 0 0 0 0 0 0 0 0.25 0"/>
<feBlend mode="normal" in2="BackgroundImageFix" result="effect1_dropShadow_100_35"/>
<feBlend mode="normal" in="SourceGraphic" in2="effect1_dropShadow_100_35" result="shape"/>
</filter>
<filter id="filter15_d_100_35" x="650.962" y="272.791" width="72.077" height="53.417" filterUnits="userSpaceOnUse" color-interpolation-filters="sRGB">
<feFlood flood-opacity="0" result="BackgroundImageFix"/>
<feColorMatrix in="SourceAlpha" type="matrix" values="0 0 0 0 0 0 0 0 0 0 0 0 0 0 0 0 0 0 127 0" result="hardAlpha"/>
<feOffset dx="1" dy="1"/>
<feGaussianBlur stdDeviation="0.8"/>
<feComposite in2="hardAlpha" operator="out"/>
<feColorMatrix type="matrix" values="0 0 0 0 0 0 0 0 0 0 0 0 0 0 0 0 0 0 0.25 0"/>
<feBlend mode="normal" in2="BackgroundImageFix" result="effect1_dropShadow_100_35"/>
<feBlend mode="normal" in="SourceGraphic" in2="effect1_dropShadow_100_35" result="shape"/>
</filter>
<filter id="filter16_d_100_35" x="271.959" y="174.793" width="70.0823" height="52.4131" filterUnits="userSpaceOnUse" color-interpolation-filters="sRGB">
<feFlood flood-opacity="0" result="BackgroundImageFix"/>
<feColorMatrix in="SourceAlpha" type="matrix" values="0 0 0 0 0 0 0 0 0 0 0 0 0 0 0 0 0 0 127 0" result="hardAlpha"/>
<feOffset dx="1" dy="1"/>
<feGaussianBlur stdDeviation="0.8"/>
<feComposite in2="hardAlpha" operator="out"/>
<feColorMatrix type="matrix" values="0 0 0 0 0 0 0 0 0 0 0 0 0 0 0 0 0 0 0.25 0"/>
<feBlend mode="normal" in2="BackgroundImageFix" result="effect1_dropShadow_100_35"/>
<feBlend mode="normal" in="SourceGraphic" in2="effect1_dropShadow_100_35" result="shape"/>
</filter>
<filter id="filter17_d_100_35" x="411.956" y="70.7958" width="72.0887" height="54.4085" filterUnits="userSpaceOnUse" color-interpolation-filters="sRGB">
<feFlood flood-opacity="0" result="BackgroundImageFix"/>
<feColorMatrix in="SourceAlpha" type="matrix" values="0 0 0 0 0 0 0 0 0 0 0 0 0 0 0 0 0 0 127 0" result="hardAlpha"/>
<feOffset dx="1" dy="1"/>
<feGaussianBlur stdDeviation="0.8"/>
<feComposite in2="hardAlpha" operator="out"/>
<feColorMatrix type="matrix" values="0 0 0 0 0 0 0 0 0 0 0 0 0 0 0 0 0 0 0.25 0"/>
<feBlend mode="normal" in2="BackgroundImageFix" result="effect1_dropShadow_100_35"/>
<feBlend mode="normal" in="SourceGraphic" in2="effect1_dropShadow_100_35" result="shape"/>
</filter>
<filter id="filter18_d_100_35" x="442.959" y="174.793" width="70.0823" height="52.4131" filterUnits="userSpaceOnUse" color-interpolation-filters="sRGB">
<feFlood flood-opacity="0" result="BackgroundImageFix"/>
<feColorMatrix in="SourceAlpha" type="matrix" values="0 0 0 0 0 0 0 0 0 0 0 0 0 0 0 0 0 0 127 0" result="hardAlpha"/>
<feOffset dx="1" dy="1"/>
<feGaussianBlur stdDeviation="0.8"/>
<feComposite in2="hardAlpha" operator="out"/>
<feColorMatrix type="matrix" values="0 0 0 0 0 0 0 0 0 0 0 0 0 0 0 0 0 0 0.25 0"/>
<feBlend mode="normal" in2="BackgroundImageFix" result="effect1_dropShadow_100_35"/>
<feBlend mode="normal" in="SourceGraphic" in2="effect1_dropShadow_100_35" result="shape"/>
</filter>
<filter id="filter19_d_100_35" x="582.956" y="70.7958" width="72.0887" height="54.4085" filterUnits="userSpaceOnUse" color-interpolation-filters="sRGB">
<feFlood flood-opacity="0" result="BackgroundImageFix"/>
<feColorMatrix in="SourceAlpha" type="matrix" values="0 0 0 0 0 0 0 0 0 0 0 0 0 0 0 0 0 0 127 0" result="hardAlpha"/>
<feOffset dx="1" dy="1"/>
<feGaussianBlur stdDeviation="0.8"/>
<feComposite in2="hardAlpha" operator="out"/>
<feColorMatrix type="matrix" values="0 0 0 0 0 0 0 0 0 0 0 0 0 0 0 0 0 0 0.25 0"/>
<feBlend mode="normal" in2="BackgroundImageFix" result="effect1_dropShadow_100_35"/>
<feBlend mode="normal" in="SourceGraphic" in2="effect1_dropShadow_100_35" result="shape"/>
</filter>
<filter id="filter20_d_100_35" x="618.959" y="174.793" width="70.0823" height="52.4131" filterUnits="userSpaceOnUse" color-interpolation-filters="sRGB">
<feFlood flood-opacity="0" result="BackgroundImageFix"/>
<feColorMatrix in="SourceAlpha" type="matrix" values="0 0 0 0 0 0 0 0 0 0 0 0 0 0 0 0 0 0 127 0" result="hardAlpha"/>
<feOffset dx="1" dy="1"/>
<feGaussianBlur stdDeviation="0.8"/>
<feComposite in2="hardAlpha" operator="out"/>
<feColorMatrix type="matrix" values="0 0 0 0 0 0 0 0 0 0 0 0 0 0 0 0 0 0 0.25 0"/>
<feBlend mode="normal" in2="BackgroundImageFix" result="effect1_dropShadow_100_35"/>
<feBlend mode="normal" in="SourceGraphic" in2="effect1_dropShadow_100_35" result="shape"/>
</filter>
<filter id="filter21_d_100_35" x="758.956" y="70.7958" width="72.0887" height="54.4085" filterUnits="userSpaceOnUse" color-interpolation-filters="sRGB">
<feFlood flood-opacity="0" result="BackgroundImageFix"/>
<feColorMatrix in="SourceAlpha" type="matrix" values="0 0 0 0 0 0 0 0 0 0 0 0 0 0 0 0 0 0 127 0" result="hardAlpha"/>
<feOffset dx="1" dy="1"/>
<feGaussianBlur stdDeviation="0.8"/>
<feComposite in2="hardAlpha" operator="out"/>
<feColorMatrix type="matrix" values="0 0 0 0 0 0 0 0 0 0 0 0 0 0 0 0 0 0 0.25 0"/>
<feBlend mode="normal" in2="BackgroundImageFix" result="effect1_dropShadow_100_35"/>
<feBlend mode="normal" in="SourceGraphic" in2="effect1_dropShadow_100_35" result="shape"/>
</filter>
<filter id="filter22_d_100_35" x="785.959" y="174.793" width="70.0823" height="52.4131" filterUnits="userSpaceOnUse" color-interpolation-filters="sRGB">
<feFlood flood-opacity="0" result="BackgroundImageFix"/>
<feColorMatrix in="SourceAlpha" type="matrix" values="0 0 0 0 0 0 0 0 0 0 0 0 0 0 0 0 0 0 127 0" result="hardAlpha"/>
<feOffset dx="1" dy="1"/>
<feGaussianBlur stdDeviation="0.8"/>
<feComposite in2="hardAlpha" operator="out"/>
<feColorMatrix type="matrix" values="0 0 0 0 0 0 0 0 0 0 0 0 0 0 0 0 0 0 0.25 0"/>
<feBlend mode="normal" in2="BackgroundImageFix" result="effect1_dropShadow_100_35"/>
<feBlend mode="normal" in="SourceGraphic" in2="effect1_dropShadow_100_35" result="shape"/>
</filter>
<filter id="filter23_d_100_35" x="925.956" y="70.7958" width="72.0887" height="54.4085" filterUnits="userSpaceOnUse" color-interpolation-filters="sRGB">
<feFlood flood-opacity="0" result="BackgroundImageFix"/>
<feColorMatrix in="SourceAlpha" type="matrix" values="0 0 0 0 0 0 0 0 0 0 0 0 0 0 0 0 0 0 127 0" result="hardAlpha"/>
<feOffset dx="1" dy="1"/>
<feGaussianBlur stdDeviation="0.8"/>
<feComposite in2="hardAlpha" operator="out"/>
<feColorMatrix type="matrix" values="0 0 0 0 0 0 0 0 0 0 0 0 0 0 0 0 0 0 0.25 0"/>
<feBlend mode="normal" in2="BackgroundImageFix" result="effect1_dropShadow_100_35"/>
<feBlend mode="normal" in="SourceGraphic" in2="effect1_dropShadow_100_35" result="shape"/>
</filter>
<linearGradient id="paint0_linear_100_35" x1="567" y1="17" x2="567" y2="907" gradientUnits="userSpaceOnUse">
<stop stop-color="white" stop-opacity="0"/>
<stop offset="0.625" stop-color="#E2C0FF"/>
</linearGradient>
</defs>
</svg>
