<svg width="380" height="299" viewBox="0 0 380 299" fill="none" xmlns="http://www.w3.org/2000/svg">
<g clip-path="url(#clip0_101_99)">
<path d="M281.89 84.8C264.91 58.18 229.55 58.79 210.96 69.44C197.75 77.01 191.44 96.2 209.17 102.02H164.19C151.99 102.02 140.11 105.9 130.25 113.09L34.2901 183.1C-10.7199 215.94 12.5101 287.19 68.2301 287.19H204.37C216.57 287.19 228.45 283.31 238.31 276.12L334.26 206.1C375.5 176.01 359.44 113.69 313.61 103.46C323.1 92.63 334.03 99.32 344.8 103.83C350.83 106.36 358.34 107.26 363.52 103.27C389.19 83.45 320.1 29.42 281.9 84.8H281.89ZM221.08 101.96C226.87 99.86 232.64 97.66 238.95 97.77C242.64 97.83 245.63 99.42 248.35 102.01H223.1L221.08 101.96ZM300.32 102.01H254.61C254.63 85.74 306.44 84.57 307.99 102.48C305.51 102.17 302.95 102.01 300.31 102.01H300.32Z" fill="#007578"/>
<path d="M224.78 152.09C223.81 139.18 217.67 129.53 206.2 123.42C199.6 119.91 192.48 120.33 185.32 120.8C180.04 121.15 178.34 122.68 171.37 122.33C167.31 122.13 161.33 119.87 157.26 119.73C144.2 119.28 133.12 123.09 125.25 133.17C118.57 141.73 116.67 153.59 118.45 164.17C118.85 166.37 119.32 168.51 119.89 170.59C126.65 195.33 151.64 210.73 176.8 205.76C176.93 205.74 177.05 205.71 177.18 205.68C189.51 203.66 199.59 196.91 208.88 188.9C220.13 179.2 225.89 167.1 224.77 152.08L224.78 152.09ZM180.06 138.05C177.01 139.73 173.66 140.28 170.56 140.28C164.69 140.28 159.72 138.3 159.41 138.17C158.18 137.67 157.59 136.27 158.09 135.04C158.59 133.81 159.99 133.22 161.22 133.72C161.37 133.78 170.98 137.57 177.75 133.84C178.91 133.2 180.37 133.63 181.01 134.79C181.65 135.95 181.23 137.41 180.06 138.05Z" fill="white"/>
<path d="M174.51 240.6C168.3 221.65 146.27 232.67 139.74 214.71C134.38 200.91 118.48 202.65 106.46 204.24C90.3201 206.96 101.09 188.05 79.6001 181.51C57.7601 174.87 30.9601 195.78 30.9601 224.02C29.1001 250.71 48.0201 273.69 71.1001 266.94C78.1901 264.46 85.2801 257.61 92.6001 263.45C114.15 283.2 126.36 255.31 146.33 267.3C146.83 267.6 147.32 267.91 147.84 268.17C156.63 272.6 165.63 267.68 170.77 260.11C174.63 254.42 176.65 247.12 174.51 240.59V240.6ZM153.49 249.84C153.06 250.67 152.22 251.14 151.36 251.14C150.99 251.14 150.61 251.05 150.26 250.87C134.81 242.88 51.6301 218.53 50.8001 218.29C49.5301 217.92 48.8001 216.59 49.1701 215.31C49.5401 214.04 50.8701 213.31 52.1501 213.68C55.5901 214.69 136.62 238.4 152.47 246.6C153.65 247.21 154.11 248.66 153.5 249.83L153.49 249.84Z" fill="white"/>
<path d="M304.41 123.48C291.58 121.38 277.54 129.25 265.51 139.76C276.28 145.11 282.05 156.86 282.34 157.47C282.91 158.67 282.41 160.1 281.22 160.67C280.88 160.83 280.53 160.91 280.18 160.91C279.29 160.91 278.43 160.41 278.02 159.55C277.95 159.41 272.02 147.38 261.64 143.3C259.39 145.45 257.22 147.66 255.17 149.89C252.89 152.34 250.67 154.78 248.49 157.23C257.9 161.89 263.04 173.18 263.3 173.74C263.84 174.95 263.3 176.37 262.09 176.91C261.77 177.05 261.44 177.12 261.11 177.12C260.19 177.12 259.32 176.59 258.92 175.7C258.86 175.57 253.73 164.39 245.17 161C231.14 177.11 218.96 193.49 206.26 213.2C214.85 218.2 219.54 228.48 219.78 229.01C220.32 230.22 219.78 231.64 218.57 232.18C218.25 232.32 217.92 232.39 217.59 232.39C216.67 232.39 215.8 231.86 215.4 230.97C215.35 230.86 211.02 221.41 203.68 217.25C202.11 219.72 200.54 222.23 198.95 224.81C179.12 258.78 186.24 270.91 202.19 270.48C217.31 270.07 236.7 258.02 255.93 243.26C275.71 228.07 285.47 221.61 305.46 206.7C317.87 197.45 340.31 186.31 340.31 165.33C340.31 146.94 320.95 125.32 304.43 123.48H304.41Z" fill="white"/>
<path d="M30.8401 47.77C30.8401 47.77 37.4401 61.89 71.3001 69.78C98.5001 76.12 96.6801 97.77 96.6801 97.77" stroke="#007578" stroke-width="5" stroke-miterlimit="10" stroke-linecap="round"/>
<path d="M157.92 10.23C157.92 10.23 147.71 25.38 165.21 41.43C179.27 54.32 163.28 67.14 163.28 67.14" stroke="#007578" stroke-width="5" stroke-miterlimit="10" stroke-linecap="round"/>
<path d="M121.81 3.90998C123.99 1.83998 125.58 1.41998 126.9 2.54998C128.23 3.68998 128.14 5.79998 126.78 8.13998C126.45 8.69998 126.19 9.45998 126.27 10.08C126.63 12.91 125.41 14.36 122.66 13.92C121.42 13.72 120.57 13.82 119.62 14.76C118.4 15.96 116.82 16.06 115.52 14.81C114.22 13.56 114.62 12.14 115.59 10.89C116.3 9.98998 117.15 9.19998 118.24 8.04998C115.31 7.68998 111.93 7.77998 112.49 3.51998C112.73 1.68998 113.79 0.319983 115.62 0.0599832C118.64 -0.370017 120.45 1.49998 121.82 3.90998H121.81Z" fill="#007578"/>
<path d="M4.73009 67.38C1.65009 66.23 0.610092 64.73 1.12009 62.37C1.71009 59.64 3.54009 58.5 6.65009 58.79C7.69009 58.89 8.76009 58.68 9.80009 58.77C11.0101 58.88 12.3901 58.87 13.3501 59.47C13.9401 59.83 14.3701 61.55 14.0101 62.1C13.4101 63.02 12.1301 63.49 11.0501 64.2C11.5601 64.96 12.5501 66.07 13.0801 67.37C13.4101 68.19 13.4101 69.66 12.8901 70.19C11.8701 71.23 10.7701 70.43 10.0001 69.41C9.69009 69.01 9.43009 68.58 8.88009 67.77C7.79009 69.42 6.80009 70.88 5.87009 72.37C5.24009 73.38 4.56009 74.72 3.28009 73.71C2.70009 73.25 2.66009 71.66 2.90009 70.72C3.19009 69.57 4.05009 68.57 4.73009 67.39V67.38Z" fill="#007578"/>
<path d="M201.06 36.7801C201.14 37.9301 201.73 39.7201 201.23 40.1201C198.93 41.9301 198.23 38.9001 196.59 38.1901C196.03 38.6801 195.48 39.2501 194.85 39.7001C193.75 40.4901 192.32 40.8701 191.59 39.6101C191.11 38.7901 191.18 37.1101 191.73 36.3701C192.48 35.3701 193.89 34.8101 195.11 34.2601C195.79 33.9501 196.66 34.0301 197.44 33.9401L197.36 33.2401C196.37 33.3501 195.36 33.3801 194.39 33.5901C192.25 34.0401 190.55 33.2501 189.99 31.4601C189.38 29.5201 190.38 27.1201 192.38 26.7801C193.59 26.5701 195.01 27.3701 196.29 27.8301C197.19 28.1501 197.97 28.9101 198.88 29.0501C200.52 29.3101 202.13 29.8501 202.34 31.4901C202.51 32.8201 201.77 34.2801 201.32 35.6501C201.21 35.9901 200.66 36.1801 200.31 36.4401L201.06 36.7801Z" fill="#007578"/>
</g>
<g filter="url(#filter0_d_101_99)">
<path d="M358 125L338 134.024" stroke="#E2C0FF" stroke-width="1.5"/>
</g>
<g filter="url(#filter1_d_101_99)">
<path d="M380 79.9201L360 88.9442" stroke="#E2C0FF" stroke-width="1.5"/>
</g>
<g filter="url(#filter2_d_101_99)">
<path d="M274 64.9999L263 74.9441" stroke="#E2C0FF" stroke-width="1.5"/>
</g>
<g filter="url(#filter3_d_101_99)">
<path d="M21 180L38 191" stroke="#E2C0FF" stroke-width="1.5"/>
</g>
<g filter="url(#filter4_d_101_99)">
<path d="M240 263L257 274" stroke="#E2C0FF" stroke-width="1.5"/>
</g>
<g filter="url(#filter5_d_101_99)">
<path d="M66 144L84 156" stroke="#E2C0FF" stroke-width="1.5"/>
</g>
<g filter="url(#filter6_d_101_99)">
<path d="M288 228L306 240" stroke="#E2C0FF" stroke-width="1.5"/>
</g>
<g filter="url(#filter7_d_101_99)">
<path d="M111 112L129 125" stroke="#E2C0FF" stroke-width="1.5"/>
</g>
<g filter="url(#filter8_d_101_99)">
<path d="M196 70L211 82" stroke="#E2C0FF" stroke-width="1.5"/>
</g>
<g filter="url(#filter9_d_101_99)">
<path d="M291 63L306 75" stroke="#E2C0FF" stroke-width="1.5"/>
</g>
<g filter="url(#filter10_d_101_99)">
<path d="M328 193L346 206" stroke="#E2C0FF" stroke-width="1.5"/>
</g>
<g filter="url(#filter11_d_101_99)">
<path d="M22.173 243.866L1.00008 252" stroke="#E2C0FF" stroke-width="1.5"/>
</g>
<g filter="url(#filter12_d_101_99)">
<path d="M174.47 111.485L175.041 95" stroke="#E2C0FF" stroke-width="1.5"/>
</g>
<g filter="url(#filter13_d_101_99)">
<path d="M236.47 69.4848L237.041 53" stroke="#E2C0FF" stroke-width="1.5"/>
</g>
<g filter="url(#filter14_d_101_99)">
<path d="M336.47 69.4847L340 53" stroke="#E2C0FF" stroke-width="1.5"/>
</g>
<g filter="url(#filter15_d_101_99)">
<path d="M65.4699 296L66.0413 278" stroke="#E2C0FF" stroke-width="1.5"/>
</g>
<g filter="url(#filter16_d_101_99)">
<path d="M126.47 296L127.041 278" stroke="#E2C0FF" stroke-width="1.5"/>
</g>
<g filter="url(#filter17_d_101_99)">
<path d="M187.47 296L188.041 278" stroke="#E2C0FF" stroke-width="1.5"/>
</g>
<defs>
<filter id="filter0_d_101_99" x="337.092" y="123.716" width="23.8167" height="13.5914" filterUnits="userSpaceOnUse" color-interpolation-filters="sRGB">
<feFlood flood-opacity="0" result="BackgroundImageFix"/>
<feColorMatrix in="SourceAlpha" type="matrix" values="0 0 0 0 0 0 0 0 0 0 0 0 0 0 0 0 0 0 127 0" result="hardAlpha"/>
<feOffset dx="1" dy="1"/>
<feGaussianBlur stdDeviation="0.8"/>
<feComposite in2="hardAlpha" operator="out"/>
<feColorMatrix type="matrix" values="0 0 0 0 0 0 0 0 0 0 0 0 0 0 0 0 0 0 0.4 0"/>
<feBlend mode="normal" in2="BackgroundImageFix" result="effect1_dropShadow_101_99"/>
<feBlend mode="normal" in="SourceGraphic" in2="effect1_dropShadow_101_99" result="shape"/>
</filter>
<filter id="filter1_d_101_99" x="359.092" y="78.6365" width="23.8167" height="13.5914" filterUnits="userSpaceOnUse" color-interpolation-filters="sRGB">
<feFlood flood-opacity="0" result="BackgroundImageFix"/>
<feColorMatrix in="SourceAlpha" type="matrix" values="0 0 0 0 0 0 0 0 0 0 0 0 0 0 0 0 0 0 127 0" result="hardAlpha"/>
<feOffset dx="1" dy="1"/>
<feGaussianBlur stdDeviation="0.8"/>
<feComposite in2="hardAlpha" operator="out"/>
<feColorMatrix type="matrix" values="0 0 0 0 0 0 0 0 0 0 0 0 0 0 0 0 0 0 0.4 0"/>
<feBlend mode="normal" in2="BackgroundImageFix" result="effect1_dropShadow_101_99"/>
<feBlend mode="normal" in="SourceGraphic" in2="effect1_dropShadow_101_99" result="shape"/>
</filter>
<filter id="filter2_d_101_99" x="261.897" y="63.8436" width="15.2059" height="14.2569" filterUnits="userSpaceOnUse" color-interpolation-filters="sRGB">
<feFlood flood-opacity="0" result="BackgroundImageFix"/>
<feColorMatrix in="SourceAlpha" type="matrix" values="0 0 0 0 0 0 0 0 0 0 0 0 0 0 0 0 0 0 127 0" result="hardAlpha"/>
<feOffset dx="1" dy="1"/>
<feGaussianBlur stdDeviation="0.8"/>
<feComposite in2="hardAlpha" operator="out"/>
<feColorMatrix type="matrix" values="0 0 0 0 0 0 0 0 0 0 0 0 0 0 0 0 0 0 0.4 0"/>
<feBlend mode="normal" in2="BackgroundImageFix" result="effect1_dropShadow_101_99"/>
<feBlend mode="normal" in="SourceGraphic" in2="effect1_dropShadow_101_99" result="shape"/>
</filter>
<filter id="filter3_d_101_99" x="19.9925" y="178.77" width="21.0149" height="15.4593" filterUnits="userSpaceOnUse" color-interpolation-filters="sRGB">
<feFlood flood-opacity="0" result="BackgroundImageFix"/>
<feColorMatrix in="SourceAlpha" type="matrix" values="0 0 0 0 0 0 0 0 0 0 0 0 0 0 0 0 0 0 127 0" result="hardAlpha"/>
<feOffset dx="1" dy="1"/>
<feGaussianBlur stdDeviation="0.8"/>
<feComposite in2="hardAlpha" operator="out"/>
<feColorMatrix type="matrix" values="0 0 0 0 0 0 0 0 0 0 0 0 0 0 0 0 0 0 0.4 0"/>
<feBlend mode="normal" in2="BackgroundImageFix" result="effect1_dropShadow_101_99"/>
<feBlend mode="normal" in="SourceGraphic" in2="effect1_dropShadow_101_99" result="shape"/>
</filter>
<filter id="filter4_d_101_99" x="238.993" y="261.77" width="21.0149" height="15.4593" filterUnits="userSpaceOnUse" color-interpolation-filters="sRGB">
<feFlood flood-opacity="0" result="BackgroundImageFix"/>
<feColorMatrix in="SourceAlpha" type="matrix" values="0 0 0 0 0 0 0 0 0 0 0 0 0 0 0 0 0 0 127 0" result="hardAlpha"/>
<feOffset dx="1" dy="1"/>
<feGaussianBlur stdDeviation="0.8"/>
<feComposite in2="hardAlpha" operator="out"/>
<feColorMatrix type="matrix" values="0 0 0 0 0 0 0 0 0 0 0 0 0 0 0 0 0 0 0.4 0"/>
<feBlend mode="normal" in2="BackgroundImageFix" result="effect1_dropShadow_101_99"/>
<feBlend mode="normal" in="SourceGraphic" in2="effect1_dropShadow_101_99" result="shape"/>
</filter>
<filter id="filter5_d_101_99" x="64.984" y="142.776" width="22.032" height="16.448" filterUnits="userSpaceOnUse" color-interpolation-filters="sRGB">
<feFlood flood-opacity="0" result="BackgroundImageFix"/>
<feColorMatrix in="SourceAlpha" type="matrix" values="0 0 0 0 0 0 0 0 0 0 0 0 0 0 0 0 0 0 127 0" result="hardAlpha"/>
<feOffset dx="1" dy="1"/>
<feGaussianBlur stdDeviation="0.8"/>
<feComposite in2="hardAlpha" operator="out"/>
<feColorMatrix type="matrix" values="0 0 0 0 0 0 0 0 0 0 0 0 0 0 0 0 0 0 0.4 0"/>
<feBlend mode="normal" in2="BackgroundImageFix" result="effect1_dropShadow_101_99"/>
<feBlend mode="normal" in="SourceGraphic" in2="effect1_dropShadow_101_99" result="shape"/>
</filter>
<filter id="filter6_d_101_99" x="286.984" y="226.776" width="22.032" height="16.448" filterUnits="userSpaceOnUse" color-interpolation-filters="sRGB">
<feFlood flood-opacity="0" result="BackgroundImageFix"/>
<feColorMatrix in="SourceAlpha" type="matrix" values="0 0 0 0 0 0 0 0 0 0 0 0 0 0 0 0 0 0 127 0" result="hardAlpha"/>
<feOffset dx="1" dy="1"/>
<feGaussianBlur stdDeviation="0.8"/>
<feComposite in2="hardAlpha" operator="out"/>
<feColorMatrix type="matrix" values="0 0 0 0 0 0 0 0 0 0 0 0 0 0 0 0 0 0 0.4 0"/>
<feBlend mode="normal" in2="BackgroundImageFix" result="effect1_dropShadow_101_99"/>
<feBlend mode="normal" in="SourceGraphic" in2="effect1_dropShadow_101_99" result="shape"/>
</filter>
<filter id="filter7_d_101_99" x="109.961" y="110.792" width="22.0784" height="17.4161" filterUnits="userSpaceOnUse" color-interpolation-filters="sRGB">
<feFlood flood-opacity="0" result="BackgroundImageFix"/>
<feColorMatrix in="SourceAlpha" type="matrix" values="0 0 0 0 0 0 0 0 0 0 0 0 0 0 0 0 0 0 127 0" result="hardAlpha"/>
<feOffset dx="1" dy="1"/>
<feGaussianBlur stdDeviation="0.8"/>
<feComposite in2="hardAlpha" operator="out"/>
<feColorMatrix type="matrix" values="0 0 0 0 0 0 0 0 0 0 0 0 0 0 0 0 0 0 0.4 0"/>
<feBlend mode="normal" in2="BackgroundImageFix" result="effect1_dropShadow_101_99"/>
<feBlend mode="normal" in="SourceGraphic" in2="effect1_dropShadow_101_99" result="shape"/>
</filter>
<filter id="filter8_d_101_99" x="194.931" y="68.8143" width="19.137" height="16.3714" filterUnits="userSpaceOnUse" color-interpolation-filters="sRGB">
<feFlood flood-opacity="0" result="BackgroundImageFix"/>
<feColorMatrix in="SourceAlpha" type="matrix" values="0 0 0 0 0 0 0 0 0 0 0 0 0 0 0 0 0 0 127 0" result="hardAlpha"/>
<feOffset dx="1" dy="1"/>
<feGaussianBlur stdDeviation="0.8"/>
<feComposite in2="hardAlpha" operator="out"/>
<feColorMatrix type="matrix" values="0 0 0 0 0 0 0 0 0 0 0 0 0 0 0 0 0 0 0.4 0"/>
<feBlend mode="normal" in2="BackgroundImageFix" result="effect1_dropShadow_101_99"/>
<feBlend mode="normal" in="SourceGraphic" in2="effect1_dropShadow_101_99" result="shape"/>
</filter>
<filter id="filter9_d_101_99" x="289.931" y="61.8143" width="19.137" height="16.3714" filterUnits="userSpaceOnUse" color-interpolation-filters="sRGB">
<feFlood flood-opacity="0" result="BackgroundImageFix"/>
<feColorMatrix in="SourceAlpha" type="matrix" values="0 0 0 0 0 0 0 0 0 0 0 0 0 0 0 0 0 0 127 0" result="hardAlpha"/>
<feOffset dx="1" dy="1"/>
<feGaussianBlur stdDeviation="0.8"/>
<feComposite in2="hardAlpha" operator="out"/>
<feColorMatrix type="matrix" values="0 0 0 0 0 0 0 0 0 0 0 0 0 0 0 0 0 0 0.4 0"/>
<feBlend mode="normal" in2="BackgroundImageFix" result="effect1_dropShadow_101_99"/>
<feBlend mode="normal" in="SourceGraphic" in2="effect1_dropShadow_101_99" result="shape"/>
</filter>
<filter id="filter10_d_101_99" x="326.961" y="191.792" width="22.0784" height="17.4161" filterUnits="userSpaceOnUse" color-interpolation-filters="sRGB">
<feFlood flood-opacity="0" result="BackgroundImageFix"/>
<feColorMatrix in="SourceAlpha" type="matrix" values="0 0 0 0 0 0 0 0 0 0 0 0 0 0 0 0 0 0 127 0" result="hardAlpha"/>
<feOffset dx="1" dy="1"/>
<feGaussianBlur stdDeviation="0.8"/>
<feComposite in2="hardAlpha" operator="out"/>
<feColorMatrix type="matrix" values="0 0 0 0 0 0 0 0 0 0 0 0 0 0 0 0 0 0 0.4 0"/>
<feBlend mode="normal" in2="BackgroundImageFix" result="effect1_dropShadow_101_99"/>
<feBlend mode="normal" in="SourceGraphic" in2="effect1_dropShadow_101_99" result="shape"/>
</filter>
<filter id="filter11_d_101_99" x="0.131201" y="242.566" width="24.9107" height="12.7344" filterUnits="userSpaceOnUse" color-interpolation-filters="sRGB">
<feFlood flood-opacity="0" result="BackgroundImageFix"/>
<feColorMatrix in="SourceAlpha" type="matrix" values="0 0 0 0 0 0 0 0 0 0 0 0 0 0 0 0 0 0 127 0" result="hardAlpha"/>
<feOffset dx="1" dy="1"/>
<feGaussianBlur stdDeviation="0.8"/>
<feComposite in2="hardAlpha" operator="out"/>
<feColorMatrix type="matrix" values="0 0 0 0 0 0 0 0 0 0 0 0 0 0 0 0 0 0 0.4 0"/>
<feBlend mode="normal" in2="BackgroundImageFix" result="effect1_dropShadow_101_99"/>
<feBlend mode="normal" in="SourceGraphic" in2="effect1_dropShadow_101_99" result="shape"/>
</filter>
<filter id="filter12_d_101_99" x="172.958" y="94.3194" width="5.59453" height="19.8459" filterUnits="userSpaceOnUse" color-interpolation-filters="sRGB">
<feFlood flood-opacity="0" result="BackgroundImageFix"/>
<feColorMatrix in="SourceAlpha" type="matrix" values="0 0 0 0 0 0 0 0 0 0 0 0 0 0 0 0 0 0 127 0" result="hardAlpha"/>
<feOffset dx="1" dy="1"/>
<feGaussianBlur stdDeviation="0.8"/>
<feComposite in2="hardAlpha" operator="out"/>
<feColorMatrix type="matrix" values="0 0 0 0 0 0 0 0 0 0 0 0 0 0 0 0 0 0 0.4 0"/>
<feBlend mode="normal" in2="BackgroundImageFix" result="effect1_dropShadow_101_99"/>
<feBlend mode="normal" in="SourceGraphic" in2="effect1_dropShadow_101_99" result="shape"/>
</filter>
<filter id="filter13_d_101_99" x="234.958" y="52.3194" width="5.59453" height="19.8459" filterUnits="userSpaceOnUse" color-interpolation-filters="sRGB">
<feFlood flood-opacity="0" result="BackgroundImageFix"/>
<feColorMatrix in="SourceAlpha" type="matrix" values="0 0 0 0 0 0 0 0 0 0 0 0 0 0 0 0 0 0 127 0" result="hardAlpha"/>
<feOffset dx="1" dy="1"/>
<feGaussianBlur stdDeviation="0.8"/>
<feComposite in2="hardAlpha" operator="out"/>
<feColorMatrix type="matrix" values="0 0 0 0 0 0 0 0 0 0 0 0 0 0 0 0 0 0 0.4 0"/>
<feBlend mode="normal" in2="BackgroundImageFix" result="effect1_dropShadow_101_99"/>
<feBlend mode="normal" in="SourceGraphic" in2="effect1_dropShadow_101_99" result="shape"/>
</filter>
<filter id="filter14_d_101_99" x="334.966" y="52.3773" width="8.53862" height="19.7302" filterUnits="userSpaceOnUse" color-interpolation-filters="sRGB">
<feFlood flood-opacity="0" result="BackgroundImageFix"/>
<feColorMatrix in="SourceAlpha" type="matrix" values="0 0 0 0 0 0 0 0 0 0 0 0 0 0 0 0 0 0 127 0" result="hardAlpha"/>
<feOffset dx="1" dy="1"/>
<feGaussianBlur stdDeviation="0.8"/>
<feComposite in2="hardAlpha" operator="out"/>
<feColorMatrix type="matrix" values="0 0 0 0 0 0 0 0 0 0 0 0 0 0 0 0 0 0 0.4 0"/>
<feBlend mode="normal" in2="BackgroundImageFix" result="effect1_dropShadow_101_99"/>
<feBlend mode="normal" in="SourceGraphic" in2="effect1_dropShadow_101_99" result="shape"/>
</filter>
<filter id="filter15_d_101_99" x="63.9784" y="277.327" width="5.55449" height="21.3459" filterUnits="userSpaceOnUse" color-interpolation-filters="sRGB">
<feFlood flood-opacity="0" result="BackgroundImageFix"/>
<feColorMatrix in="SourceAlpha" type="matrix" values="0 0 0 0 0 0 0 0 0 0 0 0 0 0 0 0 0 0 127 0" result="hardAlpha"/>
<feOffset dx="1" dy="1"/>
<feGaussianBlur stdDeviation="0.8"/>
<feComposite in2="hardAlpha" operator="out"/>
<feColorMatrix type="matrix" values="0 0 0 0 0 0 0 0 0 0 0 0 0 0 0 0 0 0 0.4 0"/>
<feBlend mode="normal" in2="BackgroundImageFix" result="effect1_dropShadow_101_99"/>
<feBlend mode="normal" in="SourceGraphic" in2="effect1_dropShadow_101_99" result="shape"/>
</filter>
<filter id="filter16_d_101_99" x="124.978" y="277.327" width="5.55449" height="21.3459" filterUnits="userSpaceOnUse" color-interpolation-filters="sRGB">
<feFlood flood-opacity="0" result="BackgroundImageFix"/>
<feColorMatrix in="SourceAlpha" type="matrix" values="0 0 0 0 0 0 0 0 0 0 0 0 0 0 0 0 0 0 127 0" result="hardAlpha"/>
<feOffset dx="1" dy="1"/>
<feGaussianBlur stdDeviation="0.8"/>
<feComposite in2="hardAlpha" operator="out"/>
<feColorMatrix type="matrix" values="0 0 0 0 0 0 0 0 0 0 0 0 0 0 0 0 0 0 0.4 0"/>
<feBlend mode="normal" in2="BackgroundImageFix" result="effect1_dropShadow_101_99"/>
<feBlend mode="normal" in="SourceGraphic" in2="effect1_dropShadow_101_99" result="shape"/>
</filter>
<filter id="filter17_d_101_99" x="185.978" y="277.327" width="5.55449" height="21.3459" filterUnits="userSpaceOnUse" color-interpolation-filters="sRGB">
<feFlood flood-opacity="0" result="BackgroundImageFix"/>
<feColorMatrix in="SourceAlpha" type="matrix" values="0 0 0 0 0 0 0 0 0 0 0 0 0 0 0 0 0 0 127 0" result="hardAlpha"/>
<feOffset dx="1" dy="1"/>
<feGaussianBlur stdDeviation="0.8"/>
<feComposite in2="hardAlpha" operator="out"/>
<feColorMatrix type="matrix" values="0 0 0 0 0 0 0 0 0 0 0 0 0 0 0 0 0 0 0.4 0"/>
<feBlend mode="normal" in2="BackgroundImageFix" result="effect1_dropShadow_101_99"/>
<feBlend mode="normal" in="SourceGraphic" in2="effect1_dropShadow_101_99" result="shape"/>
</filter>
<clipPath id="clip0_101_99">
<rect width="439.15" height="287.19" fill="white" transform="translate(1)"/>
</clipPath>
</defs>
</svg>
