<svg width="380" height="205" viewBox="0 0 380 205" fill="none" xmlns="http://www.w3.org/2000/svg">
<g clip-path="url(#clip0_101_65)">
<path d="M201.82 193.17H65.6901C9.97008 193.17 -13.2599 121.93 31.7501 89.09L127.7 19.07C137.56 11.88 149.44 8 161.64 8H297.77C353.49 8 376.72 79.24 331.71 112.09L235.76 182.11C225.9 189.3 214.02 193.18 201.82 193.18V193.17Z" fill="#007578"/>
<path d="M246.31 20.47C230.14 23.79 215.09 27.88 197.33 24.89C179.58 21.9 162.3 19.55 150.92 23.86C126.58 33.08 126.16 42.99 103.53 64.56C83.9501 83.22 60.1201 80.51 42.5901 97.66C28.6601 111.27 21.4201 127.71 28.6701 150.2C34.7701 169.12 60.1001 184.86 90.1001 178.61C106.28 175.24 136.01 170.54 157.6 172.11C179.19 173.68 202.14 180.31 212.34 174.07C220.42 169.13 221.47 161.21 217.02 153.52C215.93 151.64 213.79 149.99 210.87 148.59C204.08 145.93 192.8 143.47 174.53 143.83C172.94 143.94 171.35 144.08 169.77 144.26C148.96 146.61 90.9601 147.99 86.7901 130.64C84.8601 122.63 89.52 117.65 95.09 114.6C93.16 110.01 92.0901 104.94 92.1101 99.61C92.1901 79.16 109.04 62.45 129.55 62.5C149.5 62.55 165.87 79.47 165.83 100C165.83 100.61 165.81 101.22 165.78 101.82C178.46 100.58 188.87 100.34 191.13 102.49C197.68 108.72 195 115.76 191.13 117.58C188.94 118.61 185.1 115.21 173.31 120.72C167.42 123.47 158.01 131.68 160.3 139.81C189.59 137.36 205.75 141.1 214.26 144.81C214.98 144.73 215.64 144.57 216.32 144.31C216.39 128.88 227.54 123.14 245.15 115.98C260.26 109.84 271.71 100.14 279.17 87.15C280.22 85.32 281.12 83.54 281.88 81.87C282.77 75.73 282.47 62.36 263.14 61.73C242.01 61.03 227.88 68.15 206.3 67.1C201.28 66.86 195.29 66.33 192.3 65.51C188.77 64.55 186.27 62.33 186.27 58C186.27 53.67 188.97 50.59 193.78 50.49C202.9 50.3 219.53 51.85 232.26 48.11C260.14 39.93 284.91 47.06 289.73 62.01C292.39 70.27 289.63 78.43 285.78 84.94C280.43 96.24 269.4 111.28 246.96 120.4C229.7 127.42 222.38 132.02 221.24 141.42L221.28 141.39C221 143.96 221.47 146.59 223.13 149.11C231.03 161.1 261.5 144.37 266.69 141.38C271.88 138.39 335.09 107.99 335.07 61.24C335.05 14.55 274 14.77 246.32 20.45L246.31 20.47Z" fill="white"/>
<path d="M129.47 67.4C111.65 67.35 96.9899 81.88 96.9299 99.66C96.8599 117.73 111.09 132.37 128.81 132.47C146.53 132.57 160.97 118.01 161.01 100C161.04 82.15 146.82 67.44 129.47 67.4ZM110.05 98.93C110.05 100.31 108.93 101.43 107.55 101.43C106.17 101.43 105.05 100.31 105.05 98.93V94.3C105.05 92.92 106.17 91.8 107.55 91.8C108.93 91.8 110.05 92.92 110.05 94.3V98.93ZM125.54 98.93C125.54 100.31 124.42 101.43 123.04 101.43C121.66 101.43 120.54 100.31 120.54 98.93V94.3C120.54 92.92 121.66 91.8 123.04 91.8C124.42 91.8 125.54 92.92 125.54 94.3V98.93Z" fill="white"/>
</g>
<g filter="url(#filter0_d_101_65)">
<path d="M358 30.9999L338 40.024" stroke="#E2C0FF" stroke-width="1.5"/>
</g>
<g filter="url(#filter1_d_101_65)">
<path d="M21 86L38 97" stroke="#E2C0FF" stroke-width="1.5"/>
</g>
<g filter="url(#filter2_d_101_65)">
<path d="M240 169L257 180" stroke="#E2C0FF" stroke-width="1.5"/>
</g>
<g filter="url(#filter3_d_101_65)">
<path d="M66 50L84 62" stroke="#E2C0FF" stroke-width="1.5"/>
</g>
<g filter="url(#filter4_d_101_65)">
<path d="M288 134L306 146" stroke="#E2C0FF" stroke-width="1.5"/>
</g>
<g filter="url(#filter5_d_101_65)">
<path d="M111 18L129 31" stroke="#E2C0FF" stroke-width="1.5"/>
</g>
<g filter="url(#filter6_d_101_65)">
<path d="M328 99L346 112" stroke="#E2C0FF" stroke-width="1.5"/>
</g>
<g filter="url(#filter7_d_101_65)">
<path d="M22.173 149.866L1.00008 158" stroke="#E2C0FF" stroke-width="1.5"/>
</g>
<g filter="url(#filter8_d_101_65)">
<path d="M174.47 17.4848L175.041 0.999966" stroke="#E2C0FF" stroke-width="1.5"/>
</g>
<g filter="url(#filter9_d_101_65)">
<path d="M65.4699 202L66.0413 184" stroke="#E2C0FF" stroke-width="1.5"/>
</g>
<g filter="url(#filter10_d_101_65)">
<path d="M235.47 17.4848L236.041 0.999966" stroke="#E2C0FF" stroke-width="1.5"/>
</g>
<g filter="url(#filter11_d_101_65)">
<path d="M126.47 202L127.041 184" stroke="#E2C0FF" stroke-width="1.5"/>
</g>
<g filter="url(#filter12_d_101_65)">
<path d="M296.47 17.4848L297.041 0.999966" stroke="#E2C0FF" stroke-width="1.5"/>
</g>
<g filter="url(#filter13_d_101_65)">
<path d="M187.47 202L188.041 184" stroke="#E2C0FF" stroke-width="1.5"/>
</g>
<defs>
<filter id="filter0_d_101_65" x="337.092" y="29.7163" width="23.8167" height="13.5914" filterUnits="userSpaceOnUse" color-interpolation-filters="sRGB">
<feFlood flood-opacity="0" result="BackgroundImageFix"/>
<feColorMatrix in="SourceAlpha" type="matrix" values="0 0 0 0 0 0 0 0 0 0 0 0 0 0 0 0 0 0 127 0" result="hardAlpha"/>
<feOffset dx="1" dy="1"/>
<feGaussianBlur stdDeviation="0.8"/>
<feComposite in2="hardAlpha" operator="out"/>
<feColorMatrix type="matrix" values="0 0 0 0 0 0 0 0 0 0 0 0 0 0 0 0 0 0 0.4 0"/>
<feBlend mode="normal" in2="BackgroundImageFix" result="effect1_dropShadow_101_65"/>
<feBlend mode="normal" in="SourceGraphic" in2="effect1_dropShadow_101_65" result="shape"/>
</filter>
<filter id="filter1_d_101_65" x="19.9925" y="84.7704" width="21.0149" height="15.4593" filterUnits="userSpaceOnUse" color-interpolation-filters="sRGB">
<feFlood flood-opacity="0" result="BackgroundImageFix"/>
<feColorMatrix in="SourceAlpha" type="matrix" values="0 0 0 0 0 0 0 0 0 0 0 0 0 0 0 0 0 0 127 0" result="hardAlpha"/>
<feOffset dx="1" dy="1"/>
<feGaussianBlur stdDeviation="0.8"/>
<feComposite in2="hardAlpha" operator="out"/>
<feColorMatrix type="matrix" values="0 0 0 0 0 0 0 0 0 0 0 0 0 0 0 0 0 0 0.4 0"/>
<feBlend mode="normal" in2="BackgroundImageFix" result="effect1_dropShadow_101_65"/>
<feBlend mode="normal" in="SourceGraphic" in2="effect1_dropShadow_101_65" result="shape"/>
</filter>
<filter id="filter2_d_101_65" x="238.993" y="167.77" width="21.0149" height="15.4593" filterUnits="userSpaceOnUse" color-interpolation-filters="sRGB">
<feFlood flood-opacity="0" result="BackgroundImageFix"/>
<feColorMatrix in="SourceAlpha" type="matrix" values="0 0 0 0 0 0 0 0 0 0 0 0 0 0 0 0 0 0 127 0" result="hardAlpha"/>
<feOffset dx="1" dy="1"/>
<feGaussianBlur stdDeviation="0.8"/>
<feComposite in2="hardAlpha" operator="out"/>
<feColorMatrix type="matrix" values="0 0 0 0 0 0 0 0 0 0 0 0 0 0 0 0 0 0 0.4 0"/>
<feBlend mode="normal" in2="BackgroundImageFix" result="effect1_dropShadow_101_65"/>
<feBlend mode="normal" in="SourceGraphic" in2="effect1_dropShadow_101_65" result="shape"/>
</filter>
<filter id="filter3_d_101_65" x="64.984" y="48.776" width="22.032" height="16.448" filterUnits="userSpaceOnUse" color-interpolation-filters="sRGB">
<feFlood flood-opacity="0" result="BackgroundImageFix"/>
<feColorMatrix in="SourceAlpha" type="matrix" values="0 0 0 0 0 0 0 0 0 0 0 0 0 0 0 0 0 0 127 0" result="hardAlpha"/>
<feOffset dx="1" dy="1"/>
<feGaussianBlur stdDeviation="0.8"/>
<feComposite in2="hardAlpha" operator="out"/>
<feColorMatrix type="matrix" values="0 0 0 0 0 0 0 0 0 0 0 0 0 0 0 0 0 0 0.4 0"/>
<feBlend mode="normal" in2="BackgroundImageFix" result="effect1_dropShadow_101_65"/>
<feBlend mode="normal" in="SourceGraphic" in2="effect1_dropShadow_101_65" result="shape"/>
</filter>
<filter id="filter4_d_101_65" x="286.984" y="132.776" width="22.032" height="16.448" filterUnits="userSpaceOnUse" color-interpolation-filters="sRGB">
<feFlood flood-opacity="0" result="BackgroundImageFix"/>
<feColorMatrix in="SourceAlpha" type="matrix" values="0 0 0 0 0 0 0 0 0 0 0 0 0 0 0 0 0 0 127 0" result="hardAlpha"/>
<feOffset dx="1" dy="1"/>
<feGaussianBlur stdDeviation="0.8"/>
<feComposite in2="hardAlpha" operator="out"/>
<feColorMatrix type="matrix" values="0 0 0 0 0 0 0 0 0 0 0 0 0 0 0 0 0 0 0.4 0"/>
<feBlend mode="normal" in2="BackgroundImageFix" result="effect1_dropShadow_101_65"/>
<feBlend mode="normal" in="SourceGraphic" in2="effect1_dropShadow_101_65" result="shape"/>
</filter>
<filter id="filter5_d_101_65" x="109.961" y="16.792" width="22.0784" height="17.4161" filterUnits="userSpaceOnUse" color-interpolation-filters="sRGB">
<feFlood flood-opacity="0" result="BackgroundImageFix"/>
<feColorMatrix in="SourceAlpha" type="matrix" values="0 0 0 0 0 0 0 0 0 0 0 0 0 0 0 0 0 0 127 0" result="hardAlpha"/>
<feOffset dx="1" dy="1"/>
<feGaussianBlur stdDeviation="0.8"/>
<feComposite in2="hardAlpha" operator="out"/>
<feColorMatrix type="matrix" values="0 0 0 0 0 0 0 0 0 0 0 0 0 0 0 0 0 0 0.4 0"/>
<feBlend mode="normal" in2="BackgroundImageFix" result="effect1_dropShadow_101_65"/>
<feBlend mode="normal" in="SourceGraphic" in2="effect1_dropShadow_101_65" result="shape"/>
</filter>
<filter id="filter6_d_101_65" x="326.961" y="97.792" width="22.0784" height="17.4161" filterUnits="userSpaceOnUse" color-interpolation-filters="sRGB">
<feFlood flood-opacity="0" result="BackgroundImageFix"/>
<feColorMatrix in="SourceAlpha" type="matrix" values="0 0 0 0 0 0 0 0 0 0 0 0 0 0 0 0 0 0 127 0" result="hardAlpha"/>
<feOffset dx="1" dy="1"/>
<feGaussianBlur stdDeviation="0.8"/>
<feComposite in2="hardAlpha" operator="out"/>
<feColorMatrix type="matrix" values="0 0 0 0 0 0 0 0 0 0 0 0 0 0 0 0 0 0 0.4 0"/>
<feBlend mode="normal" in2="BackgroundImageFix" result="effect1_dropShadow_101_65"/>
<feBlend mode="normal" in="SourceGraphic" in2="effect1_dropShadow_101_65" result="shape"/>
</filter>
<filter id="filter7_d_101_65" x="0.131201" y="148.566" width="24.9107" height="12.7344" filterUnits="userSpaceOnUse" color-interpolation-filters="sRGB">
<feFlood flood-opacity="0" result="BackgroundImageFix"/>
<feColorMatrix in="SourceAlpha" type="matrix" values="0 0 0 0 0 0 0 0 0 0 0 0 0 0 0 0 0 0 127 0" result="hardAlpha"/>
<feOffset dx="1" dy="1"/>
<feGaussianBlur stdDeviation="0.8"/>
<feComposite in2="hardAlpha" operator="out"/>
<feColorMatrix type="matrix" values="0 0 0 0 0 0 0 0 0 0 0 0 0 0 0 0 0 0 0.4 0"/>
<feBlend mode="normal" in2="BackgroundImageFix" result="effect1_dropShadow_101_65"/>
<feBlend mode="normal" in="SourceGraphic" in2="effect1_dropShadow_101_65" result="shape"/>
</filter>
<filter id="filter8_d_101_65" x="172.958" y="0.319434" width="5.59453" height="19.8459" filterUnits="userSpaceOnUse" color-interpolation-filters="sRGB">
<feFlood flood-opacity="0" result="BackgroundImageFix"/>
<feColorMatrix in="SourceAlpha" type="matrix" values="0 0 0 0 0 0 0 0 0 0 0 0 0 0 0 0 0 0 127 0" result="hardAlpha"/>
<feOffset dx="1" dy="1"/>
<feGaussianBlur stdDeviation="0.8"/>
<feComposite in2="hardAlpha" operator="out"/>
<feColorMatrix type="matrix" values="0 0 0 0 0 0 0 0 0 0 0 0 0 0 0 0 0 0 0.4 0"/>
<feBlend mode="normal" in2="BackgroundImageFix" result="effect1_dropShadow_101_65"/>
<feBlend mode="normal" in="SourceGraphic" in2="effect1_dropShadow_101_65" result="shape"/>
</filter>
<filter id="filter9_d_101_65" x="63.9784" y="183.327" width="5.55449" height="21.3459" filterUnits="userSpaceOnUse" color-interpolation-filters="sRGB">
<feFlood flood-opacity="0" result="BackgroundImageFix"/>
<feColorMatrix in="SourceAlpha" type="matrix" values="0 0 0 0 0 0 0 0 0 0 0 0 0 0 0 0 0 0 127 0" result="hardAlpha"/>
<feOffset dx="1" dy="1"/>
<feGaussianBlur stdDeviation="0.8"/>
<feComposite in2="hardAlpha" operator="out"/>
<feColorMatrix type="matrix" values="0 0 0 0 0 0 0 0 0 0 0 0 0 0 0 0 0 0 0.4 0"/>
<feBlend mode="normal" in2="BackgroundImageFix" result="effect1_dropShadow_101_65"/>
<feBlend mode="normal" in="SourceGraphic" in2="effect1_dropShadow_101_65" result="shape"/>
</filter>
<filter id="filter10_d_101_65" x="233.958" y="0.319434" width="5.59453" height="19.8459" filterUnits="userSpaceOnUse" color-interpolation-filters="sRGB">
<feFlood flood-opacity="0" result="BackgroundImageFix"/>
<feColorMatrix in="SourceAlpha" type="matrix" values="0 0 0 0 0 0 0 0 0 0 0 0 0 0 0 0 0 0 127 0" result="hardAlpha"/>
<feOffset dx="1" dy="1"/>
<feGaussianBlur stdDeviation="0.8"/>
<feComposite in2="hardAlpha" operator="out"/>
<feColorMatrix type="matrix" values="0 0 0 0 0 0 0 0 0 0 0 0 0 0 0 0 0 0 0.4 0"/>
<feBlend mode="normal" in2="BackgroundImageFix" result="effect1_dropShadow_101_65"/>
<feBlend mode="normal" in="SourceGraphic" in2="effect1_dropShadow_101_65" result="shape"/>
</filter>
<filter id="filter11_d_101_65" x="124.978" y="183.327" width="5.55449" height="21.3459" filterUnits="userSpaceOnUse" color-interpolation-filters="sRGB">
<feFlood flood-opacity="0" result="BackgroundImageFix"/>
<feColorMatrix in="SourceAlpha" type="matrix" values="0 0 0 0 0 0 0 0 0 0 0 0 0 0 0 0 0 0 127 0" result="hardAlpha"/>
<feOffset dx="1" dy="1"/>
<feGaussianBlur stdDeviation="0.8"/>
<feComposite in2="hardAlpha" operator="out"/>
<feColorMatrix type="matrix" values="0 0 0 0 0 0 0 0 0 0 0 0 0 0 0 0 0 0 0.4 0"/>
<feBlend mode="normal" in2="BackgroundImageFix" result="effect1_dropShadow_101_65"/>
<feBlend mode="normal" in="SourceGraphic" in2="effect1_dropShadow_101_65" result="shape"/>
</filter>
<filter id="filter12_d_101_65" x="294.958" y="0.319434" width="5.59453" height="19.8459" filterUnits="userSpaceOnUse" color-interpolation-filters="sRGB">
<feFlood flood-opacity="0" result="BackgroundImageFix"/>
<feColorMatrix in="SourceAlpha" type="matrix" values="0 0 0 0 0 0 0 0 0 0 0 0 0 0 0 0 0 0 127 0" result="hardAlpha"/>
<feOffset dx="1" dy="1"/>
<feGaussianBlur stdDeviation="0.8"/>
<feComposite in2="hardAlpha" operator="out"/>
<feColorMatrix type="matrix" values="0 0 0 0 0 0 0 0 0 0 0 0 0 0 0 0 0 0 0.4 0"/>
<feBlend mode="normal" in2="BackgroundImageFix" result="effect1_dropShadow_101_65"/>
<feBlend mode="normal" in="SourceGraphic" in2="effect1_dropShadow_101_65" result="shape"/>
</filter>
<filter id="filter13_d_101_65" x="185.978" y="183.327" width="5.55449" height="21.3459" filterUnits="userSpaceOnUse" color-interpolation-filters="sRGB">
<feFlood flood-opacity="0" result="BackgroundImageFix"/>
<feColorMatrix in="SourceAlpha" type="matrix" values="0 0 0 0 0 0 0 0 0 0 0 0 0 0 0 0 0 0 127 0" result="hardAlpha"/>
<feOffset dx="1" dy="1"/>
<feGaussianBlur stdDeviation="0.8"/>
<feComposite in2="hardAlpha" operator="out"/>
<feColorMatrix type="matrix" values="0 0 0 0 0 0 0 0 0 0 0 0 0 0 0 0 0 0 0.4 0"/>
<feBlend mode="normal" in2="BackgroundImageFix" result="effect1_dropShadow_101_65"/>
<feBlend mode="normal" in="SourceGraphic" in2="effect1_dropShadow_101_65" result="shape"/>
</filter>
<clipPath id="clip0_101_65">
<rect width="347.46" height="185.17" fill="white" transform="translate(8 8)"/>
</clipPath>
</defs>
</svg>
