<svg width="100%" height="auto" viewBox="0 0 1132 910" fill="none" xmlns="http://www.w3.org/2000/svg">
<g class="grad"><path d="M524 905.5L1.5 385L1129 30L594.5 882.5L524 905.5Z" fill="url(#paint0_linear_28_60)" fill-opacity="0.3"/>


</g>
<g class = "group"><path d="M598.558 2.32135H599.058V2.28771C608.251 2.51361 615.967 9.99065 616.448 19.2083C616.975 29.54 608.764 38.0971 598.558 38.0971C593.622 38.0971 589.18 36.137 585.942 32.8959L585.145 33.4794C589.254 41.4042 587.141 51.4033 579.717 56.873L579.716 56.8739C572.443 62.2676 562.529 61.4781 556.119 55.5144L555.335 56.1114C559.482 64.0743 557.37 74.0737 549.945 79.5822C541.727 85.6569 530.117 83.9214 524.048 75.6973C523.631 75.1277 523.256 74.5635 522.919 73.9652L521.989 74.2861C522.06 74.7465 522.061 75.1744 522.061 75.6828C522.061 85.5608 514.076 93.59 504.171 93.59C495.55 93.59 488.354 87.4466 486.659 79.3011L485.679 79.3037C484.021 87.4901 477.21 93.59 468.167 93.59C459.129 93.59 451.709 86.9191 450.466 78.2085L449.486 78.1574C447.526 85.9653 440.519 91.7687 432.123 91.7687C421.917 91.7687 413.706 83.2114 414.233 72.8796C414.723 63.4572 422.672 55.9154 432.084 55.9154C436.904 55.9154 441.273 57.837 444.515 60.9312L445.32 60.3716C442.002 52.6738 444.265 43.3915 451.313 38.1854L451.314 38.1849C458.586 32.7912 468.5 33.5807 474.911 39.5444L475.695 38.9474C471.548 30.9843 473.66 20.9847 481.085 15.4763C489.303 9.40208 500.912 11.1375 506.981 19.3608C507.193 19.653 507.382 19.9573 507.576 20.2706C507.654 20.3963 507.733 20.5235 507.814 20.6518L508.733 20.3252C508.658 19.6857 508.62 19.0464 508.62 18.4072C508.62 8.52919 516.605 0.5 526.51 0.5C535.132 0.5 542.327 6.64344 544.023 14.7889L545.002 14.7863C546.66 6.59989 553.471 0.5 562.514 0.5C571.552 0.5 578.972 7.17089 580.215 15.8815L581.195 15.9325C583.155 8.12474 590.162 2.32135 598.558 2.32135Z" fill="#007578" stroke="#007578"/></g>
<g class = "group"><path d="M769.5 2.32135H770V2.28771C779.193 2.51361 786.909 9.99065 787.39 19.2083C787.917 29.54 779.706 38.0971 769.5 38.0971C764.564 38.0971 760.122 36.137 756.884 32.8959L756.086 33.4794C760.196 41.4042 758.083 51.4033 750.659 56.873L750.658 56.8739C743.385 62.2676 733.471 61.4781 727.061 55.5144L726.277 56.1114C730.424 64.0743 728.311 74.0737 720.887 79.5822C712.669 85.6569 701.059 83.9214 694.99 75.6973C694.573 75.1277 694.197 74.5635 693.861 73.9652L692.931 74.2861C693.002 74.7465 693.003 75.1744 693.003 75.6828C693.003 85.5608 685.018 93.59 675.113 93.59C666.491 93.59 659.296 87.4466 657.6 79.3011L656.621 79.3037C654.963 87.4901 648.152 93.59 639.109 93.59C630.071 93.59 622.651 86.9191 621.408 78.2085L620.428 78.1574C618.468 85.9653 611.461 91.7687 603.065 91.7687C592.859 91.7687 584.648 83.2114 585.175 72.8796C585.665 63.4572 593.614 55.9154 603.026 55.9154C607.846 55.9154 612.215 57.837 615.457 60.9312L616.261 60.3716C612.944 52.6738 615.207 43.3915 622.255 38.1854L622.256 38.1849C629.528 32.7912 639.442 33.5807 645.853 39.5444L646.637 38.9474C642.489 30.9843 644.602 20.9847 652.027 15.4763C660.245 9.40208 671.854 11.1375 677.923 19.3608C678.135 19.653 678.324 19.9573 678.518 20.2706C678.596 20.3963 678.675 20.5235 678.756 20.6518L679.675 20.3252C679.6 19.6857 679.562 19.0464 679.562 18.4072C679.562 8.52919 687.547 0.5 697.452 0.5C706.073 0.5 713.269 6.64344 714.964 14.7889L715.944 14.7863C717.602 6.59989 724.413 0.5 733.456 0.5C742.494 0.5 749.914 7.17089 751.157 15.8815L752.137 15.9325C754.097 8.12474 761.104 2.32135 769.5 2.32135Z" fill="#007578" stroke="#007578"/></g>
<g class = "group"><path d="M941.878 2.32135H942.378V2.28771C951.572 2.51361 959.288 9.99065 959.769 19.2083C960.296 29.54 952.084 38.0971 941.878 38.0971C936.943 38.0971 932.501 36.137 929.263 32.8959L928.465 33.4794C932.574 41.4042 930.462 51.4033 923.038 56.873L923.036 56.8739C915.764 62.2676 905.85 61.4781 899.439 55.5144L898.655 56.1114C902.802 64.0743 900.69 74.0737 893.265 79.5822C885.048 85.6569 873.438 83.9214 867.369 75.6973C866.951 75.1277 866.576 74.5635 866.24 73.9652L865.31 74.2861C865.381 74.7465 865.381 75.1744 865.381 75.6828C865.381 85.5608 857.397 93.59 847.492 93.59C838.87 93.59 831.674 87.4466 829.979 79.3011L828.999 79.3037C827.341 87.4901 820.53 93.59 811.487 93.59C802.45 93.59 795.029 86.9191 793.786 78.2085L792.806 78.1574C790.847 85.9653 783.839 91.7687 775.444 91.7687C765.238 91.7687 757.026 83.2114 757.554 72.8796C758.043 63.4572 765.993 55.9154 775.405 55.9154C780.224 55.9154 784.594 57.837 787.836 60.9312L788.64 60.3716C785.323 52.6738 787.586 43.3915 794.634 38.1854L794.634 38.1849C801.907 32.7912 811.821 33.5807 818.231 39.5444L819.015 38.9474C814.868 30.9843 816.981 20.9847 824.406 15.4763C832.623 9.402 844.233 11.1376 850.302 19.3612C850.514 19.6532 850.702 19.9574 850.897 20.2705C850.975 20.3962 851.053 20.5234 851.135 20.6518L852.054 20.3252C851.978 19.6857 851.941 19.0464 851.941 18.4072C851.941 8.52919 859.926 0.5 869.83 0.5C878.452 0.5 885.648 6.64344 887.343 14.7889L888.323 14.7863C889.981 6.59989 896.792 0.5 905.835 0.5C914.872 0.5 922.293 7.17089 923.536 15.8815L924.516 15.9325C926.475 8.12474 933.483 2.32135 941.878 2.32135Z" fill="#007578" stroke="#007578"/></g>
<g class = "group"><path d="M1113.54 2.32135H1114.04V2.28771C1123.23 2.51361 1130.95 9.99065 1131.43 19.2083C1131.96 29.54 1123.74 38.0971 1113.54 38.0971C1108.6 38.0971 1104.16 36.137 1100.92 32.8959L1100.13 33.4794C1104.23 41.4042 1102.12 51.4033 1094.7 56.873L1094.7 56.8739C1087.42 62.2676 1077.51 61.4781 1071.1 55.5144L1070.32 56.1114C1074.46 64.0743 1072.35 74.0737 1064.93 79.5822C1056.71 85.6569 1045.1 83.9214 1039.03 75.6973C1038.61 75.1277 1038.24 74.5635 1037.9 73.9652L1036.97 74.2861C1037.04 74.7465 1037.04 75.1744 1037.04 75.6828C1037.04 85.5608 1029.06 93.59 1019.15 93.59C1010.53 93.59 1003.33 87.4466 1001.64 79.3011L1000.66 79.3037C999.002 87.4901 992.191 93.59 983.148 93.59C974.11 93.59 966.69 86.9191 965.447 78.2085L964.467 78.1574C962.507 85.9653 955.5 91.7687 947.104 91.7687C936.898 91.7687 928.687 83.2114 929.214 72.8796C929.704 63.4572 937.653 55.9154 947.065 55.9154C951.885 55.9154 956.254 57.837 959.496 60.9312L960.3 60.3716C956.983 52.6738 959.246 43.3915 966.294 38.1854L966.295 38.1849C973.567 32.7912 983.481 33.5807 989.892 39.5444L990.676 38.9474C986.528 30.9843 988.641 20.9847 996.066 15.4763C1004.28 9.40208 1015.89 11.1375 1021.96 19.3608C1022.17 19.653 1022.36 19.9573 1022.56 20.2706C1022.63 20.3963 1022.71 20.5235 1022.8 20.6518L1023.71 20.3252C1023.64 19.6857 1023.6 19.0464 1023.6 18.4072C1023.6 8.52919 1031.59 0.5 1041.49 0.5C1050.11 0.5 1057.31 6.64344 1059 14.7889L1059.98 14.7863C1061.64 6.59989 1068.45 0.5 1077.5 0.5C1086.53 0.5 1093.95 7.17089 1095.2 15.8815L1096.18 15.9325C1098.14 8.12474 1105.14 2.32135 1113.54 2.32135Z" fill="#007578" stroke="#007578"/></g>
<g class = "group"><path d="M466.849 100.735H467.349V100.701C476.539 100.928 484.258 108.461 484.739 117.753C485.267 128.17 477.051 136.791 466.849 136.791C461.914 136.791 457.473 134.817 454.235 131.55L453.435 132.131C457.546 140.12 455.431 150.199 448.007 155.711L448.005 155.712C440.734 161.146 430.821 160.351 424.411 154.342L423.625 154.936C427.774 162.963 425.66 173.042 418.234 178.593C410.018 184.713 398.409 182.966 392.34 174.678C391.923 174.104 391.547 173.535 391.211 172.933L390.28 173.251C390.351 173.716 390.352 174.148 390.352 174.66C390.352 184.619 382.363 192.708 372.462 192.708C363.843 192.708 356.646 186.519 354.95 178.307L353.97 178.31C352.311 186.563 345.498 192.708 336.458 192.708C327.423 192.708 320.001 185.988 318.757 177.206L317.777 177.155C315.816 185.026 308.807 190.872 300.414 190.872C290.212 190.872 281.997 182.252 282.524 171.835C283.014 162.335 290.966 154.738 300.376 154.738C305.194 154.738 309.562 156.674 312.805 159.792L313.611 159.235C310.292 151.475 312.557 142.118 319.606 136.872L319.606 136.872C326.878 131.437 336.79 132.232 343.2 138.242L343.987 137.647C339.837 129.62 341.952 119.541 349.378 113.99C357.594 107.87 369.202 109.618 375.271 117.905C375.483 118.199 375.672 118.506 375.866 118.821C375.944 118.948 376.023 119.076 376.105 119.205L377.024 118.881C376.949 118.236 376.911 117.591 376.911 116.947C376.911 106.988 384.9 98.8994 394.801 98.8994C403.42 98.8994 410.617 105.088 412.313 113.3L413.293 113.297C414.952 105.044 421.765 98.8994 430.805 98.8994C439.84 98.8994 447.263 105.62 448.506 114.401L449.487 114.452C451.447 106.581 458.456 100.735 466.849 100.735Z" fill="#007578" stroke="#007578"/></g>
<g class = "group"><path d="M635.188 100.735H635.688V100.701C644.878 100.928 652.597 108.461 653.078 117.753C653.606 128.17 645.39 136.791 635.188 136.791C630.254 136.791 625.812 134.817 622.574 131.55L621.774 132.131C625.885 140.12 623.77 150.199 616.346 155.711L616.344 155.712C609.073 161.146 599.161 160.351 592.75 154.342L591.964 154.936C596.113 162.963 593.999 173.042 586.573 178.593C578.357 184.713 566.749 182.966 560.679 174.678C560.262 174.104 559.886 173.535 559.55 172.933L558.619 173.251C558.69 173.716 558.691 174.148 558.691 174.66C558.691 184.619 550.703 192.708 540.801 192.708C532.183 192.708 524.985 186.519 523.289 178.307L522.309 178.31C520.65 186.563 513.837 192.708 504.797 192.708C495.762 192.708 488.34 185.988 487.096 177.206L486.116 177.155C484.155 185.026 477.146 190.872 468.753 190.872C458.551 190.872 450.335 182.252 450.863 171.835C451.353 162.335 459.306 154.738 468.715 154.738C473.533 154.738 477.902 156.674 481.144 159.792L481.95 159.235C478.631 151.475 480.896 142.118 487.945 136.872L487.945 136.872C495.217 131.437 505.129 132.232 511.54 138.242L512.326 137.647C508.177 129.62 510.291 119.541 517.717 113.99C525.933 107.87 537.54 109.617 543.61 117.904C543.822 118.199 544.011 118.506 544.205 118.821C544.283 118.948 544.362 119.076 544.444 119.205L545.363 118.881C545.288 118.236 545.25 117.591 545.25 116.947C545.25 106.988 553.239 98.8994 563.14 98.8994C571.759 98.8994 578.956 105.088 580.653 113.3L581.632 113.297C583.292 105.044 590.104 98.8994 599.145 98.8994C608.179 98.8994 615.602 105.62 616.845 114.401L617.826 114.452C619.786 106.581 626.795 100.735 635.188 100.735Z" fill="#007578" stroke="#007578"/></g>
<g class = "group"><path d="M807.567 100.735H808.067V100.701C817.257 100.928 824.976 108.461 825.457 117.753C825.985 128.17 817.769 136.791 807.567 136.791C802.633 136.791 798.191 134.817 794.953 131.55L794.153 132.131C798.264 140.12 796.149 150.199 788.725 155.711L788.723 155.712C781.452 161.146 771.539 160.351 765.129 154.342L764.343 154.936C768.492 162.963 766.378 173.042 758.952 178.593C750.736 184.713 739.127 182.966 733.058 174.678C732.641 174.104 732.265 173.535 731.929 172.933L730.998 173.251C731.069 173.716 731.07 174.148 731.07 174.66C731.07 184.619 723.082 192.708 713.18 192.708C704.561 192.708 697.364 186.519 695.668 178.307L694.688 178.31C693.029 186.563 686.216 192.708 677.176 192.708C668.141 192.708 660.719 185.988 659.475 177.206L658.495 177.155C656.534 185.026 649.525 190.872 641.132 190.872C630.93 190.872 622.714 182.252 623.242 171.835C623.732 162.335 631.685 154.738 641.094 154.738C645.912 154.738 650.281 156.674 653.523 159.792L654.329 159.235C651.01 151.475 653.275 142.118 660.324 136.872L660.324 136.872C667.596 131.437 677.508 132.232 683.919 138.242L684.705 137.647C680.555 129.62 682.67 119.541 690.096 113.99C698.312 107.87 709.919 109.617 715.989 117.904C716.201 118.199 716.39 118.506 716.584 118.821C716.662 118.948 716.741 119.076 716.823 119.205L717.742 118.881C717.667 118.236 717.629 117.591 717.629 116.947C717.629 106.988 725.618 98.8994 735.519 98.8994C744.138 98.8994 751.335 105.088 753.031 113.3L754.011 113.297C755.67 105.044 762.483 98.8994 771.524 98.8994C780.558 98.8994 787.981 105.62 789.224 114.401L790.205 114.452C792.165 106.581 799.174 100.735 807.567 100.735Z" fill="#007578" stroke="#007578"/></g>
<g class = "group"><path d="M979.227 100.735H979.727V100.701C988.917 100.928 996.636 108.461 997.117 117.753C997.645 128.17 989.429 136.791 979.227 136.791C974.293 136.791 969.851 134.817 966.613 131.55L965.813 132.131C969.924 140.12 967.809 150.199 960.385 155.711L960.383 155.712C953.112 161.146 943.2 160.351 936.789 154.342L936.003 154.936C940.152 162.963 938.038 173.042 930.612 178.593C922.396 184.713 910.788 182.966 904.718 174.678C904.301 174.104 903.926 173.535 903.589 172.933L902.658 173.251C902.729 173.716 902.73 174.148 902.73 174.66C902.73 184.619 894.742 192.708 884.841 192.708C876.222 192.708 869.024 186.519 867.328 178.307L866.348 178.31C864.689 186.563 857.876 192.708 848.836 192.708C839.801 192.708 832.379 185.988 831.135 177.206L830.155 177.155C828.194 185.026 821.185 190.872 812.792 190.872C802.59 190.872 794.375 182.252 794.902 171.835C795.392 162.335 803.345 154.738 812.754 154.738C817.572 154.738 821.941 156.674 825.183 159.792L825.989 159.235C822.67 151.475 824.935 142.118 831.984 136.872L831.985 136.872C839.256 131.437 849.168 132.232 855.579 138.242L856.365 137.647C852.216 129.62 854.33 119.541 861.756 113.99C869.972 107.87 881.58 109.617 887.649 117.905C887.861 118.199 888.05 118.506 888.244 118.821C888.322 118.948 888.401 119.076 888.483 119.205L889.402 118.881C889.327 118.236 889.289 117.591 889.289 116.947C889.289 106.988 897.278 98.8994 907.179 98.8994C915.798 98.8994 922.995 105.088 924.692 113.3L925.671 113.297C927.331 105.044 934.143 98.8994 943.184 98.8994C952.218 98.8994 959.641 105.62 960.885 114.401L961.865 114.452C963.825 106.581 970.834 100.735 979.227 100.735Z" fill="#007578" stroke="#007578"/></g>
<g class = "group"><path d="M325.625 203.444H326.125V203.41C335.315 203.637 343.034 211.169 343.515 220.462C344.043 230.879 335.827 239.5 325.625 239.5C320.69 239.5 316.249 237.526 313.01 234.259L312.211 234.84C316.322 242.829 314.207 252.908 306.782 258.42L306.781 258.421C299.51 263.855 289.597 263.06 283.187 257.051L282.401 257.645C286.55 265.672 284.436 275.751 277.01 281.302C268.794 287.422 257.185 285.675 251.116 277.387C250.699 276.813 250.323 276.244 249.987 275.642L249.056 275.96C249.127 276.425 249.128 276.857 249.128 277.369C249.128 287.328 241.139 295.417 231.238 295.417C222.619 295.417 215.422 289.228 213.726 281.016L212.746 281.019C211.087 289.272 204.274 295.417 195.234 295.417C186.199 295.417 178.776 288.697 177.533 279.915L176.552 279.864C174.592 287.735 167.583 293.581 159.19 293.581C148.988 293.581 140.772 284.961 141.3 274.544C141.79 265.044 149.742 257.447 159.151 257.447C163.97 257.447 168.338 259.383 171.581 262.501L172.387 261.944C169.068 254.184 171.333 244.827 178.381 239.581L178.382 239.581C185.654 234.146 195.566 234.941 201.976 240.951L202.763 240.356C198.613 232.329 200.728 222.25 208.154 216.699C216.37 210.579 227.977 212.326 234.047 220.614C234.259 220.908 234.448 221.215 234.642 221.53C234.72 221.657 234.799 221.785 234.88 221.914L235.8 221.59C235.725 220.945 235.687 220.3 235.687 219.656C235.687 209.697 243.676 201.608 253.577 201.608C262.196 201.608 269.393 207.797 271.089 216.009L272.069 216.006C273.728 207.753 280.541 201.608 289.581 201.608C298.616 201.608 306.038 208.328 307.282 217.11L308.262 217.161C310.223 209.29 317.232 203.444 325.625 203.444Z" fill="#007578" stroke="#007578"/></g>
<g class = "group"><path d="M496.567 203.444H497.067V203.41C506.257 203.637 513.976 211.169 514.457 220.462C514.985 230.879 506.769 239.5 496.567 239.5C491.633 239.5 487.191 237.526 483.953 234.259L483.153 234.84C487.264 242.829 485.149 252.908 477.725 258.42L477.723 258.421C470.452 263.855 460.539 263.06 454.129 257.051L453.343 257.645C457.492 265.672 455.378 275.751 447.952 281.302C439.736 287.422 428.127 285.675 422.058 277.387C421.641 276.813 421.265 276.244 420.929 275.642L419.998 275.96C420.069 276.425 420.07 276.857 420.07 277.369C420.07 287.328 412.082 295.417 402.18 295.417C393.561 295.417 386.364 289.228 384.668 281.016L383.688 281.019C382.029 289.272 375.216 295.417 366.176 295.417C357.141 295.417 349.719 288.697 348.475 279.915L347.495 279.864C345.534 287.735 338.525 293.581 330.132 293.581C319.93 293.581 311.714 284.961 312.242 274.544C312.732 265.044 320.685 257.447 330.094 257.447C334.912 257.447 339.281 259.383 342.523 262.501L343.329 261.944C340.01 254.184 342.275 244.827 349.324 239.581L349.324 239.581C356.596 234.146 366.508 234.941 372.919 240.951L373.705 240.356C369.555 232.329 371.67 222.25 379.096 216.699C387.312 210.579 398.919 212.326 404.989 220.613C405.201 220.908 405.39 221.215 405.584 221.53C405.662 221.657 405.741 221.785 405.823 221.914L406.742 221.59C406.667 220.945 406.629 220.3 406.629 219.656C406.629 209.697 414.618 201.608 424.519 201.608C433.138 201.608 440.335 207.797 442.031 216.009L443.011 216.006C444.67 207.753 451.483 201.608 460.524 201.608C469.558 201.608 476.981 208.328 478.224 217.11L479.205 217.161C481.165 209.29 488.174 203.444 496.567 203.444Z" fill="#007578" stroke="#007578"/></g>
<g class = "group"><path d="M668.946 203.444H669.446V203.41C678.636 203.637 686.354 211.169 686.836 220.462C687.363 230.879 679.148 239.5 668.946 239.5C664.011 239.5 659.57 237.526 656.331 234.259L655.532 234.84C659.643 242.829 657.528 252.908 650.103 258.42L650.102 258.421C642.83 263.855 632.918 263.06 626.508 257.051L625.722 257.645C629.871 265.672 627.756 275.751 620.331 281.302C612.115 287.422 600.506 285.675 594.437 277.387C594.019 276.813 593.644 276.244 593.308 275.642L592.377 275.96C592.448 276.425 592.449 276.857 592.449 277.369C592.449 287.328 584.46 295.417 574.559 295.417C565.94 295.417 558.743 289.228 557.046 281.016L556.066 281.019C554.407 289.272 547.595 295.417 538.554 295.417C529.52 295.417 522.097 288.697 520.853 279.915L519.873 279.864C517.913 287.735 510.904 293.581 502.511 293.581C492.309 293.581 484.093 284.961 484.621 274.544C485.111 265.044 493.063 257.447 502.472 257.447C507.29 257.447 511.659 259.383 514.901 262.501L515.708 261.944C512.389 254.184 514.654 244.827 521.702 239.581L521.703 239.581C528.975 234.146 538.887 234.941 545.297 240.951L546.083 240.356C541.934 232.329 544.049 222.25 551.474 216.699C559.69 210.579 571.298 212.326 577.368 220.613C577.58 220.908 577.769 221.215 577.963 221.53C578.041 221.657 578.12 221.785 578.201 221.914L579.121 221.59C579.046 220.945 579.008 220.3 579.008 219.656C579.008 209.697 586.996 201.608 596.897 201.608C605.516 201.608 612.714 207.797 614.41 216.009L615.39 216.006C617.049 207.753 623.862 201.608 632.902 201.608C641.937 201.608 649.359 208.328 650.603 217.11L651.583 217.161C653.544 209.29 660.553 203.444 668.946 203.444Z" fill="#007578" stroke="#007578"/></g>
<g class = "group"><path d="M839.888 203.444H840.388V203.41C849.578 203.637 857.297 211.169 857.778 220.462C858.306 230.879 850.09 239.5 839.888 239.5C834.954 239.5 830.512 237.526 827.274 234.259L826.474 234.84C830.585 242.829 828.47 252.908 821.046 258.42L821.044 258.421C813.773 263.855 803.86 263.06 797.45 257.051L796.664 257.645C800.813 265.672 798.699 275.751 791.273 281.302C783.057 287.422 771.449 285.675 765.379 277.387C764.962 276.813 764.586 276.244 764.25 275.642L763.319 275.96C763.39 276.425 763.391 276.857 763.391 277.369C763.391 287.328 755.403 295.417 745.501 295.417C736.882 295.417 729.685 289.228 727.989 281.016L727.009 281.019C725.35 289.272 718.537 295.417 709.497 295.417C700.462 295.417 693.04 288.697 691.796 279.915L690.816 279.864C688.855 287.735 681.846 293.581 673.453 293.581C663.251 293.581 655.035 284.961 655.563 274.544C656.053 265.044 664.006 257.447 673.415 257.447C678.233 257.447 682.602 259.383 685.844 262.501L686.65 261.944C683.331 254.184 685.596 244.827 692.645 239.581L692.645 239.581C699.917 234.146 709.829 234.941 716.24 240.951L717.026 240.356C712.877 232.329 714.991 222.25 722.417 216.699C730.633 210.579 742.241 212.326 748.31 220.614C748.522 220.908 748.711 221.215 748.905 221.53C748.983 221.657 749.062 221.785 749.144 221.914L750.063 221.59C749.988 220.945 749.95 220.3 749.95 219.656C749.95 209.697 757.939 201.608 767.84 201.608C776.459 201.608 783.656 207.797 785.353 216.009L786.332 216.006C787.992 207.753 794.804 201.608 803.845 201.608C812.879 201.608 820.302 208.328 821.545 217.11L822.526 217.161C824.486 209.29 831.495 203.444 839.888 203.444Z" fill="#007578" stroke="#007578"/></g>
<g class = "group"><path d="M184.849 306.139H185.349V306.105C194.542 306.331 202.258 313.808 202.739 323.026C203.266 333.357 195.055 341.914 184.849 341.914C179.913 341.914 175.471 339.954 172.233 336.713L171.436 337.297C175.545 345.222 173.432 355.221 166.008 360.69L166.007 360.691C158.734 366.085 148.82 365.296 142.41 359.332L141.626 359.929C145.773 367.892 143.661 377.891 136.236 383.4C128.018 389.474 116.408 387.739 110.339 379.514C109.922 378.945 109.546 378.381 109.21 377.783L108.28 378.104C108.351 378.564 108.352 378.992 108.352 379.5C108.352 389.378 100.367 397.407 90.4624 397.407C81.8406 397.407 74.6449 391.264 72.9495 383.118L71.97 383.121C70.3116 391.307 63.5009 397.407 54.4576 397.407C45.4202 397.407 37.9999 390.736 36.7567 382.026L35.7768 381.975C33.8173 389.783 26.8097 395.586 18.4142 395.586C8.20838 395.586 -0.00320875 387.029 0.524063 376.697C1.01368 367.275 8.96316 359.733 18.3755 359.733C23.1949 359.733 27.5641 361.654 30.8062 364.749L31.6106 364.189C28.2932 356.491 30.5563 347.209 37.6041 342.003L37.6049 342.002C44.8774 336.609 54.7914 337.398 61.2019 343.362L61.9859 342.765C57.8385 334.802 59.9511 324.802 67.3763 319.294C75.5938 313.219 87.2032 314.955 93.2721 323.179C93.4842 323.471 93.6728 323.775 93.867 324.088C93.945 324.214 94.0238 324.341 94.1055 324.469L95.024 324.143C94.9488 323.503 94.9113 322.864 94.9113 322.225C94.9113 312.347 102.896 304.317 112.801 304.317C121.423 304.317 128.618 310.461 130.314 318.606L131.293 318.604C132.951 310.417 139.762 304.317 148.805 304.317C157.843 304.317 165.263 310.988 166.506 319.699L167.486 319.75C169.446 311.942 176.453 306.139 184.849 306.139Z" fill="#007578" stroke="#007578"/></g>
<g class = "group"><path d="M355.791 306.139H356.291V306.105C365.484 306.331 373.2 313.808 373.681 323.026C374.208 333.357 365.997 341.914 355.791 341.914C350.855 341.914 346.413 339.954 343.175 336.713L342.377 337.297C346.487 345.222 344.374 355.221 336.95 360.69L336.949 360.691C329.676 366.085 319.762 365.296 313.352 359.332L312.568 359.929C316.715 367.892 314.602 377.891 307.178 383.4C298.96 389.474 287.35 387.739 281.281 379.515C280.864 378.945 280.488 378.381 280.152 377.783L279.222 378.104C279.293 378.564 279.294 378.992 279.294 379.5C279.294 389.378 271.309 397.407 261.404 397.407C252.782 397.407 245.587 391.264 243.891 383.118L242.912 383.121C241.254 391.307 234.443 397.407 225.4 397.407C216.362 397.407 208.942 390.736 207.699 382.026L206.719 381.975C204.759 389.783 197.752 395.586 189.356 395.586C179.15 395.586 170.939 387.029 171.466 376.697C171.956 367.275 179.905 359.733 189.317 359.733C194.137 359.733 198.506 361.654 201.748 364.749L202.552 364.189C199.235 356.491 201.498 347.209 208.546 342.003L208.547 342.002C215.819 336.609 225.733 337.398 232.144 343.362L232.928 342.765C228.78 334.802 230.893 324.802 238.318 319.294C246.536 313.219 258.145 314.955 264.214 323.179C264.426 323.471 264.615 323.775 264.809 324.088C264.887 324.214 264.966 324.341 265.047 324.469L265.966 324.143C265.891 323.503 265.853 322.864 265.853 322.225C265.853 312.347 273.838 304.317 283.743 304.317C292.364 304.317 299.56 310.461 301.256 318.606L302.235 318.604C303.893 310.417 310.704 304.317 319.747 304.317C328.785 304.317 336.205 310.988 337.448 319.699L338.428 319.75C340.388 311.942 347.395 306.139 355.791 306.139Z" fill="#007578" stroke="#007578"/></g>
<g class = "group"><path d="M528.17 306.139H528.67V306.105C537.863 306.331 545.579 313.808 546.06 323.026C546.587 333.357 538.375 341.914 528.17 341.914C523.234 341.914 518.792 339.954 515.554 336.713L514.756 337.297C518.866 345.222 516.753 355.221 509.329 360.69L509.328 360.691C502.055 366.085 492.141 365.296 485.73 359.332L484.946 359.929C489.094 367.892 486.981 377.891 479.557 383.4C471.339 389.474 459.729 387.739 453.66 379.515C453.243 378.945 452.867 378.381 452.531 377.783L451.601 378.104C451.672 378.564 451.673 378.992 451.673 379.5C451.673 389.378 443.688 397.407 433.783 397.407C425.161 397.407 417.966 391.264 416.27 383.118L415.291 383.121C413.632 391.307 406.822 397.407 397.778 397.407C388.741 397.407 381.321 390.736 380.078 382.026L379.098 381.975C377.138 389.783 370.131 395.586 361.735 395.586C351.529 395.586 343.318 387.029 343.845 376.697C344.334 367.275 352.284 359.733 361.696 359.733C366.516 359.733 370.885 361.654 374.127 364.749L374.931 364.189C371.614 356.491 373.877 347.209 380.925 342.003L380.926 342.002C388.198 336.609 398.112 337.398 404.523 343.362L405.307 342.765C401.159 334.802 403.272 324.802 410.697 319.294C418.914 313.219 430.524 314.955 436.593 323.178C436.805 323.47 436.994 323.775 437.188 324.088C437.266 324.214 437.345 324.341 437.426 324.469L438.345 324.143C438.27 323.503 438.232 322.864 438.232 322.225C438.232 312.347 446.217 304.317 456.122 304.317C464.743 304.317 471.939 310.461 473.634 318.606L474.614 318.604C476.272 310.417 483.083 304.317 492.126 304.317C501.164 304.317 508.584 310.988 509.827 319.699L510.807 319.75C512.767 311.942 519.774 306.139 528.17 306.139Z" fill="#007578" stroke="#007578"/></g>
<g class = "group"><path d="M699.112 306.139H699.612V306.105C708.805 306.331 716.521 313.808 717.002 323.026C717.529 333.357 709.318 341.914 699.112 341.914C694.176 341.914 689.734 339.954 686.496 336.713L685.699 337.297C689.808 345.222 687.695 355.221 680.271 360.69L680.27 360.691C672.997 366.085 663.083 365.296 656.673 359.332L655.889 359.929C660.036 367.892 657.924 377.891 650.499 383.4C642.281 389.474 630.671 387.739 624.602 379.515C624.185 378.945 623.81 378.381 623.474 377.783L622.543 378.104C622.614 378.564 622.615 378.992 622.615 379.5C622.615 389.378 614.63 397.407 604.726 397.407C596.104 397.407 588.908 391.264 587.213 383.118L586.233 383.121C584.575 391.307 577.764 397.407 568.721 397.407C559.683 397.407 552.263 390.736 551.02 382.026L550.04 381.975C548.08 389.783 541.073 395.586 532.677 395.586C522.472 395.586 514.26 387.029 514.787 376.697C515.277 367.275 523.226 359.733 532.639 359.733C537.458 359.733 541.827 361.654 545.069 364.749L545.874 364.189C542.556 356.491 544.819 347.209 551.867 342.003L551.868 342.002C559.141 336.609 569.055 337.398 575.465 343.362L576.249 342.765C572.102 334.802 574.214 324.802 581.64 319.294C589.857 313.219 601.466 314.955 607.535 323.178C607.747 323.47 607.936 323.775 608.13 324.088C608.208 324.214 608.287 324.341 608.369 324.469L609.287 324.143C609.212 323.503 609.174 322.864 609.174 322.225C609.174 312.347 617.159 304.317 627.064 304.317C635.686 304.317 642.881 310.461 644.577 318.606L645.556 318.604C647.215 310.417 654.025 304.317 663.069 304.317C672.106 304.317 679.526 310.988 680.77 319.699L681.75 319.75C683.709 311.942 690.717 306.139 699.112 306.139Z" fill="#007578" stroke="#007578"/></g>
<g class = "mini"><path d="M589.903 877.158H589.477C586.664 877.158 584.303 879.143 583.641 881.833L582.66 881.783C582.24 878.782 579.739 876.5 576.71 876.5C573.674 876.5 571.384 878.583 570.824 881.405L569.843 881.407C569.271 878.602 566.845 876.5 563.956 876.5C560.636 876.5 557.942 879.248 557.942 882.652C557.942 882.87 557.955 883.089 557.98 883.309L557.059 883.63C557.026 883.577 556.996 883.527 556.967 883.479C556.901 883.371 556.843 883.276 556.775 883.181C554.73 880.355 550.825 879.762 548.062 881.846C545.56 883.74 544.843 887.184 546.245 889.93L545.455 890.52C543.295 888.47 539.962 888.202 537.517 890.052L537.516 890.053C535.142 891.841 534.374 895.038 535.495 897.693L534.686 898.245C533.593 897.182 532.125 896.525 530.509 896.525C527.356 896.525 524.673 899.108 524.508 902.351C524.33 905.912 527.102 908.842 530.523 908.842C533.336 908.842 535.697 906.857 536.359 904.167L537.34 904.217C537.76 907.218 540.261 909.5 543.29 909.5C546.326 909.5 548.616 907.417 549.176 904.595L550.157 904.593C550.729 907.398 553.155 909.5 556.044 909.5C559.364 909.5 562.058 906.752 562.058 903.348C562.058 903.162 562.057 903.03 562.036 902.891L562.968 902.575C563.08 902.777 563.205 902.97 563.347 903.168C565.392 905.995 569.297 906.588 572.061 904.504L589.903 877.158ZM589.903 877.158C592.869 877.367 595.334 879.873 595.492 882.957C595.67 886.518 592.898 889.447 589.477 889.447C587.82 889.447 586.329 888.777 585.24 887.665L584.438 888.241C585.826 890.974 585.109 894.418 582.608 896.297L582.607 896.298C580.162 898.148 576.828 897.88 574.668 895.83L573.879 896.42C575.28 899.166 574.563 902.61 572.062 904.504L589.903 877.158Z" fill="#007578" stroke="#007578"/>
</g>

<g filter="url(#filter0_d_100_34)">
<path d="M206 274L138 323" stroke="#E2C0FF" stroke-width="1.5" stroke-dasharray="8 8"/>
</g>
<g filter="url(#filter1_d_100_34)">
<path d="M377 274L309 323" stroke="#E2C0FF" stroke-width="1.5" stroke-dasharray="8 8"/>
</g>
<g filter="url(#filter2_d_100_34)">
<path d="M419.307 348.678L318 348.988" stroke="#E2C0FF" stroke-width="1.5" stroke-dasharray="8 8"/>
</g>
<g filter="url(#filter3_d_100_34)">
<path d="M561.307 246.678L460 246.988" stroke="#E2C0FF" stroke-width="1.5" stroke-dasharray="8 8"/>
</g>
<g filter="url(#filter4_d_100_34)">
<path d="M692.307 142.678L591 142.988" stroke="#E2C0FF" stroke-width="1.5" stroke-dasharray="8 8"/>
</g>
<g filter="url(#filter5_d_100_34)">
<path d="M826.307 46.678L725 46.9881" stroke="#E2C0FF" stroke-width="1.5" stroke-dasharray="8 8"/>
</g>
<g filter="url(#filter6_d_100_34)">
<path d="M247.307 348.678L146 348.988" stroke="#E2C0FF" stroke-width="1.5" stroke-dasharray="8 8"/>
</g>
<g filter="url(#filter7_d_100_34)">
<path d="M389.307 246.678L288 246.988" stroke="#E2C0FF" stroke-width="1.5" stroke-dasharray="8 8"/>
</g>
<g filter="url(#filter8_d_100_34)">
<path d="M520.307 142.678L419 142.988" stroke="#E2C0FF" stroke-width="1.5" stroke-dasharray="8 8"/>
</g>
<g filter="url(#filter9_d_100_34)">
<path d="M654.307 46.678L553 46.9881" stroke="#E2C0FF" stroke-width="1.5" stroke-dasharray="8 8"/>
</g>
<g filter="url(#filter10_d_100_34)">
<path d="M590.307 348.678L489 348.988" stroke="#E2C0FF" stroke-width="1.5" stroke-dasharray="8 8"/>
</g>
<g filter="url(#filter11_d_100_34)">
<path d="M732.307 246.678L631 246.988" stroke="#E2C0FF" stroke-width="1.5" stroke-dasharray="8 8"/>
</g>
<g filter="url(#filter12_d_100_34)">
<path d="M863.307 142.678L762 142.988" stroke="#E2C0FF" stroke-width="1.5" stroke-dasharray="8 8"/>
</g>
<g filter="url(#filter13_d_100_34)">
<path d="M997.307 46.678L896 46.9881" stroke="#E2C0FF" stroke-width="1.5" stroke-dasharray="8 8"/>
</g>
<g filter="url(#filter14_d_100_34)">
<path d="M553 274L485 323" stroke="#E2C0FF" stroke-width="1.5" stroke-dasharray="8 8"/>
</g>
<g filter="url(#filter15_d_100_34)">
<path d="M720 274L652 323" stroke="#E2C0FF" stroke-width="1.5" stroke-dasharray="8 8"/>
</g>
<g filter="url(#filter16_d_100_34)">
<path d="M339 176L273 224" stroke="#E2C0FF" stroke-width="1.5" stroke-dasharray="8 8"/>
</g>
<g filter="url(#filter17_d_100_34)">
<path d="M481 72L413 122" stroke="#E2C0FF" stroke-width="1.5" stroke-dasharray="8 8"/>
</g>
<g filter="url(#filter18_d_100_34)">
<path d="M510 176L444 224" stroke="#E2C0FF" stroke-width="1.5" stroke-dasharray="8 8"/>
</g>
<g filter="url(#filter19_d_100_34)">
<path d="M652 72L584 122" stroke="#E2C0FF" stroke-width="1.5" stroke-dasharray="8 8"/>
</g>
<g filter="url(#filter20_d_100_34)">
<path d="M686 176L620 224" stroke="#E2C0FF" stroke-width="1.5" stroke-dasharray="8 8"/>
</g>
<g filter="url(#filter21_d_100_34)">
<path d="M828 72L760 122" stroke="#E2C0FF" stroke-width="1.5" stroke-dasharray="8 8"/>
</g>
<g filter="url(#filter22_d_100_34)">
<path d="M853 176L787 224" stroke="#E2C0FF" stroke-width="1.5" stroke-dasharray="8 8"/>
</g>
<g filter="url(#filter23_d_100_34)">
<path d="M995 72L927 122" stroke="#E2C0FF" stroke-width="1.5" stroke-dasharray="8 8"/>
</g>
<defs>
<filter id="filter0_d_100_34" x="133.562" y="273.391" width="76.877" height="58.217" filterUnits="userSpaceOnUse" color-interpolation-filters="sRGB">
<feFlood flood-opacity="0" result="BackgroundImageFix"/>
<feColorMatrix in="SourceAlpha" type="matrix" values="0 0 0 0 0 0 0 0 0 0 0 0 0 0 0 0 0 0 127 0" result="hardAlpha"/>
<feOffset dx="1" dy="1"/>
<feGaussianBlur stdDeviation="0.8"/>
<feComposite in2="hardAlpha" operator="out"/>
<feColorMatrix type="matrix" values="0 0 0 0 0 0 0 0 0 0 0 0 0 0 0 0 0 0 0.4 0"/>
<feBlend mode="normal" in2="BackgroundImageFix" result="effect1_dropShadow_100_34"/>
<feBlend mode="normal" in="SourceGraphic" in2="effect1_dropShadow_100_34" result="shape"/>
</filter>
<filter id="filter1_d_100_34" x="304.562" y="273.391" width="76.877" height="58.217" filterUnits="userSpaceOnUse" color-interpolation-filters="sRGB">
<feFlood flood-opacity="0" result="BackgroundImageFix"/>
<feColorMatrix in="SourceAlpha" type="matrix" values="0 0 0 0 0 0 0 0 0 0 0 0 0 0 0 0 0 0 127 0" result="hardAlpha"/>
<feOffset dx="1" dy="1"/>
<feGaussianBlur stdDeviation="0.8"/>
<feComposite in2="hardAlpha" operator="out"/>
<feColorMatrix type="matrix" values="0 0 0 0 0 0 0 0 0 0 0 0 0 0 0 0 0 0 0.4 0"/>
<feBlend mode="normal" in2="BackgroundImageFix" result="effect1_dropShadow_100_34"/>
<feBlend mode="normal" in="SourceGraphic" in2="effect1_dropShadow_100_34" result="shape"/>
</filter>
<filter id="filter2_d_100_34" x="313.998" y="347.928" width="109.312" height="9.81018" filterUnits="userSpaceOnUse" color-interpolation-filters="sRGB">
<feFlood flood-opacity="0" result="BackgroundImageFix"/>
<feColorMatrix in="SourceAlpha" type="matrix" values="0 0 0 0 0 0 0 0 0 0 0 0 0 0 0 0 0 0 127 0" result="hardAlpha"/>
<feOffset dx="1" dy="1"/>
<feGaussianBlur stdDeviation="0.8"/>
<feComposite in2="hardAlpha" operator="out"/>
<feColorMatrix type="matrix" values="0 0 0 0 0 0 0 0 0 0 0 0 0 0 0 0 0 0 0.4 0"/>
<feBlend mode="normal" in2="BackgroundImageFix" result="effect1_dropShadow_100_34"/>
<feBlend mode="normal" in="SourceGraphic" in2="effect1_dropShadow_100_34" result="shape"/>
</filter>
<filter id="filter3_d_100_34" x="455.998" y="245.928" width="109.312" height="9.81018" filterUnits="userSpaceOnUse" color-interpolation-filters="sRGB">
<feFlood flood-opacity="0" result="BackgroundImageFix"/>
<feColorMatrix in="SourceAlpha" type="matrix" values="0 0 0 0 0 0 0 0 0 0 0 0 0 0 0 0 0 0 127 0" result="hardAlpha"/>
<feOffset dx="1" dy="1"/>
<feGaussianBlur stdDeviation="0.8"/>
<feComposite in2="hardAlpha" operator="out"/>
<feColorMatrix type="matrix" values="0 0 0 0 0 0 0 0 0 0 0 0 0 0 0 0 0 0 0.4 0"/>
<feBlend mode="normal" in2="BackgroundImageFix" result="effect1_dropShadow_100_34"/>
<feBlend mode="normal" in="SourceGraphic" in2="effect1_dropShadow_100_34" result="shape"/>
</filter>
<filter id="filter4_d_100_34" x="586.998" y="141.928" width="109.312" height="9.81018" filterUnits="userSpaceOnUse" color-interpolation-filters="sRGB">
<feFlood flood-opacity="0" result="BackgroundImageFix"/>
<feColorMatrix in="SourceAlpha" type="matrix" values="0 0 0 0 0 0 0 0 0 0 0 0 0 0 0 0 0 0 127 0" result="hardAlpha"/>
<feOffset dx="1" dy="1"/>
<feGaussianBlur stdDeviation="0.8"/>
<feComposite in2="hardAlpha" operator="out"/>
<feColorMatrix type="matrix" values="0 0 0 0 0 0 0 0 0 0 0 0 0 0 0 0 0 0 0.4 0"/>
<feBlend mode="normal" in2="BackgroundImageFix" result="effect1_dropShadow_100_34"/>
<feBlend mode="normal" in="SourceGraphic" in2="effect1_dropShadow_100_34" result="shape"/>
</filter>
<filter id="filter5_d_100_34" x="720.998" y="45.928" width="109.312" height="9.81018" filterUnits="userSpaceOnUse" color-interpolation-filters="sRGB">
<feFlood flood-opacity="0" result="BackgroundImageFix"/>
<feColorMatrix in="SourceAlpha" type="matrix" values="0 0 0 0 0 0 0 0 0 0 0 0 0 0 0 0 0 0 127 0" result="hardAlpha"/>
<feOffset dx="1" dy="1"/>
<feGaussianBlur stdDeviation="0.8"/>
<feComposite in2="hardAlpha" operator="out"/>
<feColorMatrix type="matrix" values="0 0 0 0 0 0 0 0 0 0 0 0 0 0 0 0 0 0 0.4 0"/>
<feBlend mode="normal" in2="BackgroundImageFix" result="effect1_dropShadow_100_34"/>
<feBlend mode="normal" in="SourceGraphic" in2="effect1_dropShadow_100_34" result="shape"/>
</filter>
<filter id="filter6_d_100_34" x="141.998" y="347.928" width="109.312" height="9.81018" filterUnits="userSpaceOnUse" color-interpolation-filters="sRGB">
<feFlood flood-opacity="0" result="BackgroundImageFix"/>
<feColorMatrix in="SourceAlpha" type="matrix" values="0 0 0 0 0 0 0 0 0 0 0 0 0 0 0 0 0 0 127 0" result="hardAlpha"/>
<feOffset dx="1" dy="1"/>
<feGaussianBlur stdDeviation="0.8"/>
<feComposite in2="hardAlpha" operator="out"/>
<feColorMatrix type="matrix" values="0 0 0 0 0 0 0 0 0 0 0 0 0 0 0 0 0 0 0.4 0"/>
<feBlend mode="normal" in2="BackgroundImageFix" result="effect1_dropShadow_100_34"/>
<feBlend mode="normal" in="SourceGraphic" in2="effect1_dropShadow_100_34" result="shape"/>
</filter>
<filter id="filter7_d_100_34" x="283.998" y="245.928" width="109.312" height="9.81018" filterUnits="userSpaceOnUse" color-interpolation-filters="sRGB">
<feFlood flood-opacity="0" result="BackgroundImageFix"/>
<feColorMatrix in="SourceAlpha" type="matrix" values="0 0 0 0 0 0 0 0 0 0 0 0 0 0 0 0 0 0 127 0" result="hardAlpha"/>
<feOffset dx="1" dy="1"/>
<feGaussianBlur stdDeviation="0.8"/>
<feComposite in2="hardAlpha" operator="out"/>
<feColorMatrix type="matrix" values="0 0 0 0 0 0 0 0 0 0 0 0 0 0 0 0 0 0 0.4 0"/>
<feBlend mode="normal" in2="BackgroundImageFix" result="effect1_dropShadow_100_34"/>
<feBlend mode="normal" in="SourceGraphic" in2="effect1_dropShadow_100_34" result="shape"/>
</filter>
<filter id="filter8_d_100_34" x="414.998" y="141.928" width="109.312" height="9.81018" filterUnits="userSpaceOnUse" color-interpolation-filters="sRGB">
<feFlood flood-opacity="0" result="BackgroundImageFix"/>
<feColorMatrix in="SourceAlpha" type="matrix" values="0 0 0 0 0 0 0 0 0 0 0 0 0 0 0 0 0 0 127 0" result="hardAlpha"/>
<feOffset dx="1" dy="1"/>
<feGaussianBlur stdDeviation="0.8"/>
<feComposite in2="hardAlpha" operator="out"/>
<feColorMatrix type="matrix" values="0 0 0 0 0 0 0 0 0 0 0 0 0 0 0 0 0 0 0.4 0"/>
<feBlend mode="normal" in2="BackgroundImageFix" result="effect1_dropShadow_100_34"/>
<feBlend mode="normal" in="SourceGraphic" in2="effect1_dropShadow_100_34" result="shape"/>
</filter>
<filter id="filter9_d_100_34" x="548.998" y="45.928" width="109.312" height="9.81018" filterUnits="userSpaceOnUse" color-interpolation-filters="sRGB">
<feFlood flood-opacity="0" result="BackgroundImageFix"/>
<feColorMatrix in="SourceAlpha" type="matrix" values="0 0 0 0 0 0 0 0 0 0 0 0 0 0 0 0 0 0 127 0" result="hardAlpha"/>
<feOffset dx="1" dy="1"/>
<feGaussianBlur stdDeviation="0.8"/>
<feComposite in2="hardAlpha" operator="out"/>
<feColorMatrix type="matrix" values="0 0 0 0 0 0 0 0 0 0 0 0 0 0 0 0 0 0 0.4 0"/>
<feBlend mode="normal" in2="BackgroundImageFix" result="effect1_dropShadow_100_34"/>
<feBlend mode="normal" in="SourceGraphic" in2="effect1_dropShadow_100_34" result="shape"/>
</filter>
<filter id="filter10_d_100_34" x="484.998" y="347.928" width="109.312" height="9.81018" filterUnits="userSpaceOnUse" color-interpolation-filters="sRGB">
<feFlood flood-opacity="0" result="BackgroundImageFix"/>
<feColorMatrix in="SourceAlpha" type="matrix" values="0 0 0 0 0 0 0 0 0 0 0 0 0 0 0 0 0 0 127 0" result="hardAlpha"/>
<feOffset dx="1" dy="1"/>
<feGaussianBlur stdDeviation="0.8"/>
<feComposite in2="hardAlpha" operator="out"/>
<feColorMatrix type="matrix" values="0 0 0 0 0 0 0 0 0 0 0 0 0 0 0 0 0 0 0.4 0"/>
<feBlend mode="normal" in2="BackgroundImageFix" result="effect1_dropShadow_100_34"/>
<feBlend mode="normal" in="SourceGraphic" in2="effect1_dropShadow_100_34" result="shape"/>
</filter>
<filter id="filter11_d_100_34" x="626.998" y="245.928" width="109.312" height="9.81018" filterUnits="userSpaceOnUse" color-interpolation-filters="sRGB">
<feFlood flood-opacity="0" result="BackgroundImageFix"/>
<feColorMatrix in="SourceAlpha" type="matrix" values="0 0 0 0 0 0 0 0 0 0 0 0 0 0 0 0 0 0 127 0" result="hardAlpha"/>
<feOffset dx="1" dy="1"/>
<feGaussianBlur stdDeviation="0.8"/>
<feComposite in2="hardAlpha" operator="out"/>
<feColorMatrix type="matrix" values="0 0 0 0 0 0 0 0 0 0 0 0 0 0 0 0 0 0 0.4 0"/>
<feBlend mode="normal" in2="BackgroundImageFix" result="effect1_dropShadow_100_34"/>
<feBlend mode="normal" in="SourceGraphic" in2="effect1_dropShadow_100_34" result="shape"/>
</filter>
<filter id="filter12_d_100_34" x="757.998" y="141.928" width="109.312" height="9.81018" filterUnits="userSpaceOnUse" color-interpolation-filters="sRGB">
<feFlood flood-opacity="0" result="BackgroundImageFix"/>
<feColorMatrix in="SourceAlpha" type="matrix" values="0 0 0 0 0 0 0 0 0 0 0 0 0 0 0 0 0 0 127 0" result="hardAlpha"/>
<feOffset dx="1" dy="1"/>
<feGaussianBlur stdDeviation="0.8"/>
<feComposite in2="hardAlpha" operator="out"/>
<feColorMatrix type="matrix" values="0 0 0 0 0 0 0 0 0 0 0 0 0 0 0 0 0 0 0.4 0"/>
<feBlend mode="normal" in2="BackgroundImageFix" result="effect1_dropShadow_100_34"/>
<feBlend mode="normal" in="SourceGraphic" in2="effect1_dropShadow_100_34" result="shape"/>
</filter>
<filter id="filter13_d_100_34" x="891.998" y="45.928" width="109.312" height="9.81018" filterUnits="userSpaceOnUse" color-interpolation-filters="sRGB">
<feFlood flood-opacity="0" result="BackgroundImageFix"/>
<feColorMatrix in="SourceAlpha" type="matrix" values="0 0 0 0 0 0 0 0 0 0 0 0 0 0 0 0 0 0 127 0" result="hardAlpha"/>
<feOffset dx="1" dy="1"/>
<feGaussianBlur stdDeviation="0.8"/>
<feComposite in2="hardAlpha" operator="out"/>
<feColorMatrix type="matrix" values="0 0 0 0 0 0 0 0 0 0 0 0 0 0 0 0 0 0 0.4 0"/>
<feBlend mode="normal" in2="BackgroundImageFix" result="effect1_dropShadow_100_34"/>
<feBlend mode="normal" in="SourceGraphic" in2="effect1_dropShadow_100_34" result="shape"/>
</filter>
<filter id="filter14_d_100_34" x="480.562" y="273.391" width="76.877" height="58.217" filterUnits="userSpaceOnUse" color-interpolation-filters="sRGB">
<feFlood flood-opacity="0" result="BackgroundImageFix"/>
<feColorMatrix in="SourceAlpha" type="matrix" values="0 0 0 0 0 0 0 0 0 0 0 0 0 0 0 0 0 0 127 0" result="hardAlpha"/>
<feOffset dx="1" dy="1"/>
<feGaussianBlur stdDeviation="0.8"/>
<feComposite in2="hardAlpha" operator="out"/>
<feColorMatrix type="matrix" values="0 0 0 0 0 0 0 0 0 0 0 0 0 0 0 0 0 0 0.4 0"/>
<feBlend mode="normal" in2="BackgroundImageFix" result="effect1_dropShadow_100_34"/>
<feBlend mode="normal" in="SourceGraphic" in2="effect1_dropShadow_100_34" result="shape"/>
</filter>
<filter id="filter15_d_100_34" x="647.562" y="273.391" width="76.877" height="58.217" filterUnits="userSpaceOnUse" color-interpolation-filters="sRGB">
<feFlood flood-opacity="0" result="BackgroundImageFix"/>
<feColorMatrix in="SourceAlpha" type="matrix" values="0 0 0 0 0 0 0 0 0 0 0 0 0 0 0 0 0 0 127 0" result="hardAlpha"/>
<feOffset dx="1" dy="1"/>
<feGaussianBlur stdDeviation="0.8"/>
<feComposite in2="hardAlpha" operator="out"/>
<feColorMatrix type="matrix" values="0 0 0 0 0 0 0 0 0 0 0 0 0 0 0 0 0 0 0.4 0"/>
<feBlend mode="normal" in2="BackgroundImageFix" result="effect1_dropShadow_100_34"/>
<feBlend mode="normal" in="SourceGraphic" in2="effect1_dropShadow_100_34" result="shape"/>
</filter>
<filter id="filter16_d_100_34" x="268.559" y="175.393" width="74.8823" height="57.2131" filterUnits="userSpaceOnUse" color-interpolation-filters="sRGB">
<feFlood flood-opacity="0" result="BackgroundImageFix"/>
<feColorMatrix in="SourceAlpha" type="matrix" values="0 0 0 0 0 0 0 0 0 0 0 0 0 0 0 0 0 0 127 0" result="hardAlpha"/>
<feOffset dx="1" dy="1"/>
<feGaussianBlur stdDeviation="0.8"/>
<feComposite in2="hardAlpha" operator="out"/>
<feColorMatrix type="matrix" values="0 0 0 0 0 0 0 0 0 0 0 0 0 0 0 0 0 0 0.4 0"/>
<feBlend mode="normal" in2="BackgroundImageFix" result="effect1_dropShadow_100_34"/>
<feBlend mode="normal" in="SourceGraphic" in2="effect1_dropShadow_100_34" result="shape"/>
</filter>
<filter id="filter17_d_100_34" x="408.556" y="71.3958" width="76.8887" height="59.2085" filterUnits="userSpaceOnUse" color-interpolation-filters="sRGB">
<feFlood flood-opacity="0" result="BackgroundImageFix"/>
<feColorMatrix in="SourceAlpha" type="matrix" values="0 0 0 0 0 0 0 0 0 0 0 0 0 0 0 0 0 0 127 0" result="hardAlpha"/>
<feOffset dx="1" dy="1"/>
<feGaussianBlur stdDeviation="0.8"/>
<feComposite in2="hardAlpha" operator="out"/>
<feColorMatrix type="matrix" values="0 0 0 0 0 0 0 0 0 0 0 0 0 0 0 0 0 0 0.4 0"/>
<feBlend mode="normal" in2="BackgroundImageFix" result="effect1_dropShadow_100_34"/>
<feBlend mode="normal" in="SourceGraphic" in2="effect1_dropShadow_100_34" result="shape"/>
</filter>
<filter id="filter18_d_100_34" x="439.559" y="175.393" width="74.8823" height="57.2131" filterUnits="userSpaceOnUse" color-interpolation-filters="sRGB">
<feFlood flood-opacity="0" result="BackgroundImageFix"/>
<feColorMatrix in="SourceAlpha" type="matrix" values="0 0 0 0 0 0 0 0 0 0 0 0 0 0 0 0 0 0 127 0" result="hardAlpha"/>
<feOffset dx="1" dy="1"/>
<feGaussianBlur stdDeviation="0.8"/>
<feComposite in2="hardAlpha" operator="out"/>
<feColorMatrix type="matrix" values="0 0 0 0 0 0 0 0 0 0 0 0 0 0 0 0 0 0 0.4 0"/>
<feBlend mode="normal" in2="BackgroundImageFix" result="effect1_dropShadow_100_34"/>
<feBlend mode="normal" in="SourceGraphic" in2="effect1_dropShadow_100_34" result="shape"/>
</filter>
<filter id="filter19_d_100_34" x="579.556" y="71.3958" width="76.8887" height="59.2085" filterUnits="userSpaceOnUse" color-interpolation-filters="sRGB">
<feFlood flood-opacity="0" result="BackgroundImageFix"/>
<feColorMatrix in="SourceAlpha" type="matrix" values="0 0 0 0 0 0 0 0 0 0 0 0 0 0 0 0 0 0 127 0" result="hardAlpha"/>
<feOffset dx="1" dy="1"/>
<feGaussianBlur stdDeviation="0.8"/>
<feComposite in2="hardAlpha" operator="out"/>
<feColorMatrix type="matrix" values="0 0 0 0 0 0 0 0 0 0 0 0 0 0 0 0 0 0 0.4 0"/>
<feBlend mode="normal" in2="BackgroundImageFix" result="effect1_dropShadow_100_34"/>
<feBlend mode="normal" in="SourceGraphic" in2="effect1_dropShadow_100_34" result="shape"/>
</filter>
<filter id="filter20_d_100_34" x="615.559" y="175.393" width="74.8823" height="57.2131" filterUnits="userSpaceOnUse" color-interpolation-filters="sRGB">
<feFlood flood-opacity="0" result="BackgroundImageFix"/>
<feColorMatrix in="SourceAlpha" type="matrix" values="0 0 0 0 0 0 0 0 0 0 0 0 0 0 0 0 0 0 127 0" result="hardAlpha"/>
<feOffset dx="1" dy="1"/>
<feGaussianBlur stdDeviation="0.8"/>
<feComposite in2="hardAlpha" operator="out"/>
<feColorMatrix type="matrix" values="0 0 0 0 0 0 0 0 0 0 0 0 0 0 0 0 0 0 0.4 0"/>
<feBlend mode="normal" in2="BackgroundImageFix" result="effect1_dropShadow_100_34"/>
<feBlend mode="normal" in="SourceGraphic" in2="effect1_dropShadow_100_34" result="shape"/>
</filter>
<filter id="filter21_d_100_34" x="755.556" y="71.3958" width="76.8887" height="59.2085" filterUnits="userSpaceOnUse" color-interpolation-filters="sRGB">
<feFlood flood-opacity="0" result="BackgroundImageFix"/>
<feColorMatrix in="SourceAlpha" type="matrix" values="0 0 0 0 0 0 0 0 0 0 0 0 0 0 0 0 0 0 127 0" result="hardAlpha"/>
<feOffset dx="1" dy="1"/>
<feGaussianBlur stdDeviation="0.8"/>
<feComposite in2="hardAlpha" operator="out"/>
<feColorMatrix type="matrix" values="0 0 0 0 0 0 0 0 0 0 0 0 0 0 0 0 0 0 0.4 0"/>
<feBlend mode="normal" in2="BackgroundImageFix" result="effect1_dropShadow_100_34"/>
<feBlend mode="normal" in="SourceGraphic" in2="effect1_dropShadow_100_34" result="shape"/>
</filter>
<filter id="filter22_d_100_34" x="782.559" y="175.393" width="74.8823" height="57.2131" filterUnits="userSpaceOnUse" color-interpolation-filters="sRGB">
<feFlood flood-opacity="0" result="BackgroundImageFix"/>
<feColorMatrix in="SourceAlpha" type="matrix" values="0 0 0 0 0 0 0 0 0 0 0 0 0 0 0 0 0 0 127 0" result="hardAlpha"/>
<feOffset dx="1" dy="1"/>
<feGaussianBlur stdDeviation="0.8"/>
<feComposite in2="hardAlpha" operator="out"/>
<feColorMatrix type="matrix" values="0 0 0 0 0 0 0 0 0 0 0 0 0 0 0 0 0 0 0.4 0"/>
<feBlend mode="normal" in2="BackgroundImageFix" result="effect1_dropShadow_100_34"/>
<feBlend mode="normal" in="SourceGraphic" in2="effect1_dropShadow_100_34" result="shape"/>
</filter>
<filter id="filter23_d_100_34" x="922.556" y="71.3958" width="76.8887" height="59.2085" filterUnits="userSpaceOnUse" color-interpolation-filters="sRGB">
<feFlood flood-opacity="0" result="BackgroundImageFix"/>
<feColorMatrix in="SourceAlpha" type="matrix" values="0 0 0 0 0 0 0 0 0 0 0 0 0 0 0 0 0 0 127 0" result="hardAlpha"/>
<feOffset dx="1" dy="1"/>
<feGaussianBlur stdDeviation="0.8"/>
<feComposite in2="hardAlpha" operator="out"/>
<feColorMatrix type="matrix" values="0 0 0 0 0 0 0 0 0 0 0 0 0 0 0 0 0 0 0.4 0"/>
<feBlend mode="normal" in2="BackgroundImageFix" result="effect1_dropShadow_100_34"/>
<feBlend mode="normal" in="SourceGraphic" in2="effect1_dropShadow_100_34" result="shape"/>
</filter>

<linearGradient id="paint0_linear_28_60" x1="567" y1="15" x2="567" y2="905" gradientUnits="userSpaceOnUse">
<stop stop-color="white" stop-opacity="0"/>
<stop offset="0.625" stop-color="#E2C0FF"/>
</linearGradient>
</defs>


</svg>
